<svg width="131" height="131" viewBox="0 0 131 131" fill="none" xmlns="http://www.w3.org/2000/svg">
<rect width="131" height="131" rx="65.5" fill="#A4CFC3"/>
<path d="M62.3799 35.68L45.8799 41.86C42.7299 43.06 40.1499 46.78 40.1499 50.17V74.47C40.1499 76.9 41.7399 80.11 43.6899 81.55L60.1899 93.88C63.0999 96.07 67.8699 96.07 70.7799 93.88L87.2799 81.55C89.2299 80.08 90.8199 76.9 90.8199 74.47V50.17C90.8199 46.81 88.2399 43.06 85.0899 41.89L68.5899 35.71C66.9099 35.05 64.0899 35.05 62.3799 35.68Z" fill="white"/>
<path d="M61.48 72.1899C60.91 72.1899 60.34 71.9799 59.89 71.5299L55.06 66.6999C54.19 65.8299 54.19 64.3899 55.06 63.5199C55.93 62.6499 57.37 62.6499 58.24 63.5199L61.48 66.7599L72.79 55.4499C73.66 54.5799 75.1 54.5799 75.97 55.4499C76.84 56.3199 76.84 57.7599 75.97 58.6299L63.07 71.5299C62.62 71.9799 62.05 72.1899 61.48 72.1899Z" fill="#292D32"/>
</svg>
