<svg width="72" height="72" viewBox="0 0 72 72" fill="none" xmlns="http://www.w3.org/2000/svg">
<rect width="71.4365" height="71.4365" rx="35.7182" fill="#1C2A3A"/>
<path d="M26.59 51.0716C28.0443 51.9381 29.6322 52.6039 31.3153 53.0306L31.1281 53.9771L32.0502 54.1595C33.2372 54.3943 34.4637 54.5173 35.718 54.5173C36.9723 54.5173 38.1988 54.3943 39.3858 54.1595L40.3079 53.9771L40.1207 53.0306C41.8038 52.6039 43.3917 51.9381 44.846 51.0716L45.3827 51.8733L46.1637 51.3503C48.2134 49.9781 49.9779 48.2136 51.3501 46.164L51.873 45.3829L51.0714 44.8462C51.9379 43.3919 52.6036 41.8041 53.0303 40.1209L53.9769 40.3082L54.1593 39.3861C54.3941 38.1991 54.5171 36.9725 54.5171 35.7182C54.5171 34.4639 54.3941 33.2374 54.1593 32.0504L53.9769 31.1283L53.0303 31.3156C52.6036 29.6324 51.9379 28.0446 51.0714 26.5903L51.873 26.0536L51.3501 25.2725C49.9779 23.2229 48.2134 21.4584 46.1637 20.0862L45.3827 19.5632L44.846 20.3649C43.3917 19.4984 41.8038 18.8326 40.1207 18.4059L40.3079 17.4594L39.3858 17.277C38.1988 17.0421 36.9723 16.9192 35.718 16.9192C34.4637 16.9192 33.2372 17.0421 32.0502 17.277L31.1281 17.4594L31.3153 18.4059C29.6322 18.8326 28.0443 19.4984 26.59 20.3649L26.0534 19.5632L25.2723 20.0862C23.2226 21.4584 21.4581 23.2229 20.0859 25.2725L19.563 26.0536L20.3646 26.5903C19.4981 28.0446 18.8324 29.6324 18.4057 31.3156L17.4592 31.1283L17.2767 32.0504C17.0419 33.2374 16.9189 34.4639 16.9189 35.7182C16.9189 36.9725 17.0419 38.1991 17.2767 39.3861L17.4592 40.3082L18.4057 40.1209C18.8324 41.8041 19.4981 43.3919 20.3646 44.8462L19.563 45.3829L20.0859 46.164C21.4581 48.2136 23.2226 49.9781 25.2723 51.3503L26.0534 51.8733L26.59 51.0716Z" stroke="white" stroke-width="1.87991" stroke-linecap="square" stroke-dasharray="8.46 8.46"/>
<path d="M35.718 49.8175C43.5048 49.8175 49.8173 43.505 49.8173 35.7182C49.8173 27.9314 43.5048 21.6189 35.718 21.6189C27.9311 21.6189 21.6187 27.9314 21.6187 35.7182C21.6187 43.505 27.9311 49.8175 35.718 49.8175Z" fill="white"/>
<path d="M35.7165 31.9585C36.3384 31.9585 36.8432 32.4716 36.8432 33.101V34.5752H38.351C38.9716 34.5752 39.4776 35.0883 39.4776 35.7177C39.4776 36.347 38.9716 36.8602 38.351 36.8602H36.8432V38.3356C36.8432 38.965 36.3384 39.4781 35.7165 39.4781C35.0959 39.4781 34.5899 38.965 34.5899 38.3356V36.8602H33.0847C32.4627 36.8602 31.958 36.347 31.958 35.7177C31.958 35.0883 32.4627 34.5752 33.0847 34.5752H34.5899V33.101C34.5899 32.4716 35.0959 31.9585 35.7165 31.9585Z" fill="#1C2A3A"/>
</svg>
