<svg width="154" height="48" viewBox="0 0 154 48" fill="none" xmlns="http://www.w3.org/2000/svg">
<g clip-path="url(#clip0_291_17215)">
<path d="M78.8263 0.02975C90.2538 -0.624495 102.384 10.2337 102.455 22.9306C102.521 35.0077 91.3809 47.0504 78.4567 46.9655C67.9842 46.8966 54.2565 37.8221 54.7317 22.6322C55.1128 10.5046 65.8837 -0.640564 78.8263 0.02975ZM78.8263 39.8629C88.4678 39.8629 95.6783 32.5492 95.6278 22.8273C95.5796 13.9296 87.7952 6.95556 79.2097 6.61123C68.7119 6.19343 61.4601 15.2817 61.5795 23.4219C61.7057 31.2751 68.5168 40.5539 78.8378 39.8629H78.8263Z" fill="#ACA1CD"/>
<path d="M24.838 45.3265C16.1767 45.5561 9.45753 41.7293 4.21209 35.1386C2.29527 32.7329 0.624075 30.1067 0.0800185 26.9526C-0.271208 24.9347 0.587345 22.8939 2.15983 22.1869C3.92744 21.3926 5.94067 22.04 7.27671 23.741C8.06869 24.7488 8.1169 26.0366 8.67014 27.0972C10.8257 31.2293 13.95 34.7507 18.2749 36.213C26.7479 39.0779 35.6204 36.7456 40.3976 27.9052C40.9164 26.948 41.2538 25.8943 41.6831 24.8911C42.7 22.5129 45.0301 21.3995 47.1581 22.2718C49.1828 23.0983 50.1424 25.4742 49.1989 27.8111C45.6223 36.6629 39.4059 42.6269 30.0215 45.0143C29.1393 45.1997 28.2415 45.3012 27.3402 45.3173C26.5069 45.3563 25.6713 45.3265 24.838 45.3265Z" fill="#F3A877"/>
<path d="M129.414 25.6533C119.497 25.0794 111.738 20.8165 106.766 12.022C105.767 10.259 104.916 8.36286 104.952 6.19582C104.98 4.48331 105.669 3.25058 107.303 2.86951C108.937 2.48844 110.746 2.27265 111.807 4.05403C112.565 5.31431 113.093 6.70774 113.765 8.01853C118.127 16.5421 128.227 20.2334 136.951 16.2276C141.397 14.1845 144.804 10.888 146.346 6.01217C147.265 3.14268 149.005 2.089 151.58 2.79834C153.451 3.30796 154.452 5.33956 153.784 7.89456C152.255 13.7437 148.344 17.9217 143.589 21.271C139.423 24.2025 134.712 25.8851 129.414 25.6533Z" fill="#4D9B91"/>
<path d="M39.7277 3.89118C42.0417 3.89118 44.3557 3.84067 46.6673 3.90495C49.2591 3.97841 50.6387 5.26853 50.7673 7.5779C50.8843 9.67378 49.1994 11.8569 46.9543 11.9258C41.9499 12.0819 36.934 12.0428 31.925 11.9602C30.2309 11.9326 28.4702 9.6646 28.4816 7.87633C28.4718 6.86301 28.8565 5.8856 29.5544 5.15086C30.2523 4.41612 31.2087 3.98166 32.2211 3.93938C34.7211 3.82001 37.2301 3.91184 39.7346 3.91184L39.7277 3.89118Z" fill="#F3A877"/>
<path d="M133.266 38.3686C133.266 40.1707 133.321 41.975 133.252 43.7747C133.24 44.7544 132.844 45.6902 132.149 46.3815C131.455 47.0728 130.518 47.4646 129.538 47.4729C127.931 47.5326 125.938 46.0015 125.759 44.2408C125.312 40.2113 125.325 36.144 125.801 32.1177C126.049 30.1458 127.887 28.8763 129.82 29.0255C130.729 29.0889 131.582 29.4876 132.213 30.1443C132.844 30.8009 133.209 31.6687 133.236 32.5791C133.326 34.5051 133.257 36.4403 133.257 38.3686H133.266Z" fill="#4D9B91"/>
</g>
<defs>
<clipPath id="clip0_291_17215">
<rect width="154" height="47.4729" fill="white"/>
</clipPath>
</defs>
</svg>
