<svg width="24" height="25" viewBox="0 0 24 25" fill="none" xmlns="http://www.w3.org/2000/svg">
<path d="M12 9.5C13.933 9.5 15.5 7.933 15.5 6C15.5 4.067 13.933 2.5 12 2.5C10.067 2.5 8.5 4.067 8.5 6C8.5 7.933 10.067 9.5 12 9.5Z" stroke="#1C2A3A" stroke-width="1.5" stroke-linecap="round" stroke-linejoin="round"/>
<path d="M2 21C2 16.5815 6.0295 13 11 13" stroke="#1C2A3A" stroke-width="1.5" stroke-linecap="round" stroke-linejoin="round"/>
<path d="M17 22C19.4853 22 21.5 19.9853 21.5 17.5C21.5 15.0147 19.4853 13 17 13C14.5147 13 12.5 15.0147 12.5 17.5C12.5 19.9853 14.5147 22 17 22Z" stroke="#1C2A3A" stroke-width="1.5"/>
<path d="M16.5 16V18H18.5" stroke="#1C2A3A" stroke-width="1.5" stroke-linecap="round" stroke-linejoin="round"/>
</svg>
