<svg width="27" height="26" viewBox="0 0 27 26" fill="none" xmlns="http://www.w3.org/2000/svg">
<path d="M18.8284 14.248C18.8065 14.1866 18.7804 14.1267 18.7504 14.0688L18.7542 14.077C18.6447 13.8213 17.7642 12.1203 17.6172 11.8885L13.5289 4L9.33642 12.082C9.19392 12.3145 8.41242 13.822 8.30442 14.077L8.26167 14.1715C7.98284 14.8511 7.84063 15.5789 7.84317 16.3135C7.84317 17.8217 8.44228 19.268 9.50871 20.3345C10.5751 21.4009 12.0215 22 13.5297 22C15.0378 22 16.4842 21.4009 17.5506 20.3345C18.6171 19.268 19.2162 17.8217 19.2162 16.3135V16.309L19.2169 16.2332C19.2169 15.517 19.0744 14.8338 18.8157 14.2113L18.8284 14.2465V14.248ZM13.5319 20.5142C12.8045 20.5144 12.0895 20.3251 11.4575 19.965C10.8254 19.6049 10.298 19.0864 9.92725 18.4606C9.55646 17.8347 9.35506 17.1231 9.34286 16.3958C9.33066 15.6684 9.50808 14.9504 9.85767 14.3125L9.84642 14.3343C9.79149 14.6263 9.76387 14.9228 9.76392 15.22V15.2208C9.76472 16.5524 10.2941 17.8293 11.2357 18.771C12.1773 19.7126 13.4542 20.242 14.7859 20.2428C14.8707 20.2428 14.9614 20.2428 15.0454 20.2382C14.5661 20.4225 14.0567 20.516 13.5432 20.5142H13.5259H13.5319Z" fill="#C31B1B"/>
</svg>
