<svg width="14" height="15" viewBox="0 0 14 15" fill="none" xmlns="http://www.w3.org/2000/svg">
<path d="M12.4722 11.0365C12.4722 11.2347 12.4282 11.4384 12.3346 11.6366C12.241 11.8348 12.1198 12.022 11.9602 12.1982C11.6904 12.4955 11.3931 12.7102 11.0573 12.8479C10.7269 12.9855 10.3691 13.0571 9.98367 13.0571C9.4221 13.0571 8.82199 12.9249 8.18885 12.6552C7.55571 12.3854 6.92257 12.022 6.29493 11.5651C5.66179 11.1026 5.06168 10.5906 4.4891 10.0235C3.92202 9.45091 3.41 8.85081 2.95304 8.22317C2.50158 7.59553 2.13821 6.96789 1.87394 6.34576C1.60967 5.71813 1.47754 5.11802 1.47754 4.54544C1.47754 4.17106 1.54361 3.81319 1.67574 3.48286C1.80787 3.14702 2.01709 2.8387 2.30888 2.56342C2.66124 2.21657 3.04663 2.0459 3.45405 2.0459C3.6082 2.0459 3.76236 2.07893 3.9 2.145C4.04314 2.21107 4.16977 2.31017 4.26887 2.45331L5.54617 4.25364C5.64527 4.39128 5.71684 4.51791 5.76639 4.63903C5.81594 4.75465 5.84347 4.87027 5.84347 4.97487C5.84347 5.10701 5.80493 5.23914 5.72785 5.36577C5.65628 5.4924 5.55167 5.62453 5.41954 5.75666L5.00112 6.19161C4.94055 6.25217 4.91303 6.32374 4.91303 6.41183C4.91303 6.45587 4.91853 6.49441 4.92954 6.53846C4.94606 6.5825 4.96258 6.61554 4.97359 6.64857C5.07269 6.83025 5.24336 7.06699 5.48561 7.35329C5.73336 7.63958 5.99763 7.93137 6.28392 8.22317C6.58122 8.51496 6.86751 8.78474 7.15931 9.03249C7.4456 9.27474 7.68234 9.4399 7.86953 9.539C7.89705 9.55001 7.93009 9.56653 7.96863 9.58305C8.01267 9.59957 8.05672 9.60507 8.10627 9.60507C8.19986 9.60507 8.27143 9.57204 8.332 9.51148L8.75042 9.09856C8.88806 8.96092 9.02019 8.85631 9.14682 8.79024C9.27345 8.71317 9.40008 8.67463 9.53772 8.67463C9.64233 8.67463 9.75244 8.69665 9.87356 8.7462C9.99468 8.79575 10.1213 8.86732 10.259 8.96092L12.0813 10.2547C12.2244 10.3538 12.3235 10.4694 12.3841 10.6071C12.4392 10.7447 12.4722 10.8824 12.4722 11.0365Z" stroke="#9CA3AF" stroke-width="0.825838" stroke-miterlimit="10"/>
<path d="M8.90967 4.24805H11.6625" stroke="#9CA3AF" stroke-width="0.825838" stroke-linecap="round" stroke-linejoin="round"/>
<path d="M10.2869 5.62486V2.87207" stroke="#9CA3AF" stroke-width="0.825838" stroke-linecap="round" stroke-linejoin="round"/>
</svg>
