<svg width="26" height="25" viewBox="0 0 26 25" fill="none" xmlns="http://www.w3.org/2000/svg">
<path d="M8.54248 7.05066C8.54248 4.74543 10.4175 2.87036 12.7228 2.87036C15.0275 2.87036 16.9023 4.74464 16.9031 7.04921C16.8935 9.31113 15.1315 11.135 12.8855 11.2206H12.8855H12.8855H12.8854H12.8854H12.8854H12.8853H12.8853H12.8853H12.8852H12.8852H12.8852H12.8851H12.8851H12.885H12.885H12.885H12.8849H12.8849H12.8849H12.8848H12.8848H12.8848H12.8847H12.8847H12.8846H12.8846H12.8846H12.8845H12.8845H12.8844H12.8844H12.8844H12.8843H12.8843H12.8843H12.8842H12.8842H12.8841H12.8841H12.8841H12.884H12.884H12.8839H12.8839H12.8839H12.8838H12.8838H12.8837H12.8837H12.8836H12.8836H12.8836H12.8835H12.8835H12.8834H12.8834H12.8834H12.8833H12.8833H12.8832H12.8832H12.8831H12.8831H12.8831H12.883H12.883H12.8829H12.8829H12.8828H12.8828H12.8827H12.8827H12.8827H12.8826H12.8826H12.8825H12.8825H12.8824H12.8824H12.8823H12.8823H12.8822H12.8822H12.8822H12.8821H12.8821H12.882H12.882H12.8819H12.8819H12.8818H12.8818H12.8817H12.8817H12.8816H12.8816H12.8815H12.8815H12.8814H12.8814H12.8813H12.8813H12.8812H12.8812H12.8811H12.8811H12.881H12.881H12.8809H12.8809H12.8808H12.8808H12.8807H12.8807H12.8806H12.8806H12.8805H12.8805H12.8804H12.8804H12.8803H12.8803H12.8802H12.8801H12.8801H12.88H12.88H12.8799H12.8799H12.8798H12.8798H12.8797H12.8796H12.8796H12.8795H12.8795H12.8794H12.8794H12.8793H12.8792H12.8792H12.8791H12.8791H12.879H12.879H12.8789H12.8788H12.8788H12.8787H12.8787H12.8786H12.8785H12.8785H12.8784H12.8782H12.8781H12.878H12.8779H12.8777H12.8776H12.8775H12.8774H12.8773H12.8772H12.877H12.8769H12.8768H12.8767H12.8766H12.8764H12.8763H12.8762H12.8761H12.876H12.8759H12.8757H12.8756H12.8755H12.8754H12.8753H12.8752H12.875H12.8749H12.8748H12.8747H12.8746H12.8745H12.8744H12.8743C12.7717 11.2098 12.6687 11.2111 12.5748 11.2191C10.2784 11.1153 8.54248 9.29277 8.54248 7.05066Z" stroke="#9CA3AF" stroke-width="1.5"/>
<path d="M7.868 20.7934L7.86595 20.7921C6.7097 20.0212 6.16553 19.0486 6.16553 18.0842C6.16553 17.1194 6.71026 16.1367 7.87585 15.356C9.18653 14.489 10.9437 14.0337 12.7357 14.0337C14.5287 14.0337 16.2802 14.4894 17.5796 15.3557C18.7304 16.1229 19.271 17.0951 19.28 18.0665C19.2788 19.0409 18.7338 20.0132 17.5768 20.7939C16.2724 21.6695 14.5167 22.1296 12.7228 22.1296C10.9285 22.1296 9.17247 21.6693 7.868 20.7934Z" stroke="#9CA3AF" stroke-width="1.5"/>
</svg>
