<svg width="390" height="78" viewBox="0 0 390 78" fill="none" xmlns="http://www.w3.org/2000/svg">
<g clip-path="url(#clip0_291_3288)">
<path d="M196.826 0.02975C208.254 -0.624495 220.383 10.2337 220.455 22.9306C220.521 35.0077 209.381 47.0504 196.456 46.9655C185.984 46.8966 172.256 37.8221 172.731 22.6322C173.113 10.5046 183.883 -0.640564 196.826 0.02975ZM196.826 39.8629C206.468 39.8629 213.678 32.5492 213.628 22.8273C213.579 13.9296 205.795 6.95556 197.209 6.61123C186.712 6.19343 179.46 15.2817 179.579 23.4219C179.706 31.2751 186.517 40.5539 196.838 39.8629H196.826Z" fill="#ACA1CD"/>
<path d="M142.838 45.3265C134.177 45.5561 127.458 41.7293 122.212 35.1386C120.296 32.7329 118.624 30.1067 118.08 26.9526C117.729 24.9347 118.588 22.8939 120.16 22.1869C121.928 21.3926 123.941 22.04 125.277 23.741C126.069 24.7488 126.117 26.0366 126.67 27.0972C128.826 31.2293 131.95 34.7507 136.275 36.213C144.748 39.0779 153.621 36.7456 158.398 27.9052C158.917 26.948 159.254 25.8943 159.683 24.8911C160.7 22.5129 163.03 21.3995 165.158 22.2718C167.183 23.0983 168.143 25.4742 167.199 27.8111C163.623 36.6629 157.406 42.6269 148.022 45.0143C147.14 45.1997 146.242 45.3012 145.34 45.3173C144.507 45.3563 143.672 45.3265 142.838 45.3265Z" fill="#F3A877"/>
<path d="M247.414 25.6533C237.497 25.0794 229.738 20.8165 224.766 12.022C223.767 10.259 222.915 8.36286 222.952 6.19582C222.98 4.48331 223.668 3.25058 225.303 2.86951C226.937 2.48844 228.746 2.27265 229.807 4.05403C230.564 5.31431 231.092 6.70774 231.765 8.01853C236.126 16.5421 246.227 20.2334 254.95 16.2276C259.397 14.1845 262.804 10.888 264.346 6.01217C265.264 3.14268 267.005 2.089 269.58 2.79834C271.451 3.30796 272.452 5.33956 271.784 7.89456C270.255 13.7437 266.343 17.9217 261.589 21.271C257.423 24.2025 252.712 25.8851 247.414 25.6533Z" fill="#4D9B91"/>
<path d="M157.728 3.89118C160.041 3.89118 162.355 3.84067 164.667 3.90495C167.259 3.97841 168.638 5.26853 168.767 7.5779C168.884 9.67378 167.199 11.8569 164.954 11.9258C159.95 12.0819 154.934 12.0428 149.925 11.9602C148.231 11.9326 146.47 9.6646 146.481 7.87633C146.472 6.86301 146.856 5.8856 147.554 5.15086C148.252 4.41612 149.208 3.98166 150.221 3.93938C152.721 3.82001 155.23 3.91184 157.734 3.91184L157.728 3.89118Z" fill="#F3A877"/>
<path d="M251.266 38.3686C251.266 40.1707 251.321 41.975 251.253 43.7747C251.24 44.7544 250.844 45.6902 250.15 46.3815C249.456 47.0728 248.518 47.4646 247.538 47.4729C245.931 47.5326 243.939 46.0015 243.76 44.2408C243.312 40.2113 243.326 36.144 243.801 32.1177C244.049 30.1458 245.888 28.8763 247.821 29.0255C248.729 29.0889 249.582 29.4876 250.213 30.1443C250.844 30.8009 251.209 31.6687 251.237 32.5791C251.326 34.5051 251.257 36.4403 251.257 38.3686H251.266Z" fill="#4D9B91"/>
</g>
<path d="M137.604 61.4942H139.071V70.154C139.071 70.9269 138.929 71.5835 138.645 72.1237C138.362 72.6639 137.961 73.0741 137.445 73.354C136.928 73.634 136.319 73.774 135.617 73.774C134.954 73.774 134.365 73.6537 133.848 73.4132C133.332 73.1687 132.926 72.8217 132.63 72.3721C132.334 71.9226 132.186 71.3883 132.186 70.7691H133.629C133.629 71.1122 133.714 71.4119 133.884 71.6682C134.057 71.9206 134.294 72.1178 134.594 72.2597C134.893 72.4017 135.234 72.4727 135.617 72.4727C136.039 72.4727 136.398 72.384 136.693 72.2065C136.989 72.0291 137.214 71.7688 137.368 71.4257C137.526 71.0787 137.604 70.6548 137.604 70.154V61.4942ZM145.513 73.7977C144.693 73.7977 143.973 73.6025 143.354 73.2121C142.739 72.8217 142.258 72.2755 141.911 71.5736C141.568 70.8717 141.396 70.0514 141.396 69.1129C141.396 68.1665 141.568 67.3403 141.911 66.6345C142.258 65.9286 142.739 65.3805 143.354 64.9901C143.973 64.5997 144.693 64.4045 145.513 64.4045C146.333 64.4045 147.051 64.5997 147.666 64.9901C148.285 65.3805 148.766 65.9286 149.109 66.6345C149.456 67.3403 149.63 68.1665 149.63 69.1129C149.63 70.0514 149.456 70.8717 149.109 71.5736C148.766 72.2755 148.285 72.8217 147.666 73.2121C147.051 73.6025 146.333 73.7977 145.513 73.7977ZM145.513 72.5437C146.136 72.5437 146.649 72.384 147.051 72.0645C147.453 71.7451 147.751 71.3252 147.944 70.8046C148.137 70.2841 148.234 69.7202 148.234 69.1129C148.234 68.5056 148.137 67.9397 147.944 67.4153C147.751 66.8908 147.453 66.4669 147.051 66.1435C146.649 65.8201 146.136 65.6585 145.513 65.6585C144.89 65.6585 144.377 65.8201 143.975 66.1435C143.573 66.4669 143.275 66.8908 143.082 67.4153C142.889 67.9397 142.792 68.5056 142.792 69.1129C142.792 69.7202 142.889 70.2841 143.082 70.8046C143.275 71.3252 143.573 71.7451 143.975 72.0645C144.377 72.384 144.89 72.5437 145.513 72.5437ZM157.487 69.8937V64.5228H158.883V73.6084H157.487V72.0705H157.392C157.179 72.5318 156.848 72.9242 156.398 73.2476C155.949 73.567 155.381 73.7267 154.695 73.7267C154.127 73.7267 153.622 73.6025 153.18 73.354C152.739 73.1017 152.392 72.7231 152.139 72.2183C151.887 71.7096 151.761 71.0688 151.761 70.2959V64.5228H153.157V70.2013C153.157 70.8638 153.342 71.3922 153.713 71.7865C154.087 72.1809 154.565 72.3781 155.144 72.3781C155.491 72.3781 155.844 72.2893 156.203 72.1119C156.566 71.9344 156.869 71.6623 157.114 71.2956C157.362 70.9288 157.487 70.4616 157.487 69.8937ZM161.439 73.6084V64.5228H162.788V65.8951H162.883C163.048 65.4455 163.348 65.0808 163.782 64.8008C164.216 64.5208 164.705 64.3808 165.249 64.3808C165.351 64.3808 165.479 64.3828 165.633 64.3867C165.787 64.3907 165.903 64.3966 165.982 64.4045V65.8241C165.935 65.8123 165.826 65.7945 165.657 65.7709C165.491 65.7432 165.316 65.7294 165.13 65.7294C164.689 65.7294 164.294 65.8221 163.947 66.0075C163.604 66.1889 163.332 66.4412 163.131 66.7646C162.934 67.084 162.835 67.4488 162.835 67.8589V73.6084H161.439ZM169.033 68.1428V73.6084H167.637V64.5228H168.986V65.9424H169.104C169.317 65.481 169.64 65.1103 170.074 64.8303C170.508 64.5464 171.068 64.4045 171.754 64.4045C172.369 64.4045 172.907 64.5306 173.369 64.783C173.83 65.0315 174.189 65.41 174.445 65.9187C174.702 66.4235 174.83 67.0623 174.83 67.8352V73.6084H173.434V67.9299C173.434 67.2161 173.248 66.6601 172.878 66.2618C172.507 65.8596 171.998 65.6585 171.352 65.6585C170.906 65.6585 170.508 65.7551 170.157 65.9483C169.81 66.1415 169.536 66.4235 169.335 66.7942C169.134 67.1649 169.033 67.6144 169.033 68.1428ZM181.19 73.7977C180.315 73.7977 179.559 73.6045 178.925 73.218C178.294 72.8276 177.807 72.2834 177.464 71.5854C177.124 70.8835 176.955 70.0672 176.955 69.1366C176.955 68.2059 177.124 67.3857 177.464 66.6759C177.807 65.9621 178.284 65.4061 178.895 65.0078C179.51 64.6056 180.228 64.4045 181.048 64.4045C181.521 64.4045 181.989 64.4833 182.45 64.6411C182.911 64.7988 183.331 65.0551 183.71 65.41C184.088 65.761 184.39 66.2263 184.615 66.806C184.84 67.3857 184.952 68.0994 184.952 68.9473V69.5388H177.949V68.3321H183.532C183.532 67.8195 183.43 67.362 183.225 66.9598C183.024 66.5576 182.736 66.2401 182.361 66.0075C181.991 65.7748 181.553 65.6585 181.048 65.6585C180.492 65.6585 180.011 65.7965 179.605 66.0725C179.203 66.3446 178.893 66.6995 178.676 67.1372C178.459 67.575 178.351 68.0442 178.351 68.545V69.3495C178.351 70.0357 178.469 70.6173 178.706 71.0945C178.946 71.5677 179.279 71.9285 179.705 72.1769C180.131 72.4214 180.626 72.5437 181.19 72.5437C181.557 72.5437 181.888 72.4924 182.184 72.3899C182.483 72.2834 182.742 72.1257 182.959 71.9167C183.176 71.7037 183.343 71.4395 183.461 71.124L184.81 71.5026C184.668 71.96 184.43 72.3623 184.094 72.7093C183.759 73.0524 183.345 73.3205 182.852 73.5138C182.359 73.703 181.805 73.7977 181.19 73.7977ZM187.698 77.0155C187.462 77.0155 187.251 76.9958 187.065 76.9564C186.88 76.9209 186.752 76.8854 186.681 76.8499L187.036 75.6195C187.375 75.7063 187.674 75.7378 187.935 75.7142C188.195 75.6905 188.426 75.5742 188.627 75.3652C188.832 75.1601 189.019 74.8269 189.189 74.3655L189.449 73.6557L186.089 64.5228H187.604L190.112 71.7629H190.206L192.714 64.5228H194.228L190.372 74.9334C190.198 75.4027 189.983 75.7911 189.727 76.0987C189.471 76.4102 189.173 76.6409 188.834 76.7907C188.499 76.9406 188.12 77.0155 187.698 77.0155ZM204.447 73.7977C203.627 73.7977 202.907 73.6025 202.288 73.2121C201.673 72.8217 201.192 72.2755 200.845 71.5736C200.501 70.8717 200.33 70.0514 200.33 69.1129C200.33 68.1665 200.501 67.3403 200.845 66.6345C201.192 65.9286 201.673 65.3805 202.288 64.9901C202.907 64.5997 203.627 64.4045 204.447 64.4045C205.267 64.4045 205.985 64.5997 206.6 64.9901C207.219 65.3805 207.7 65.9286 208.043 66.6345C208.39 67.3403 208.564 68.1665 208.564 69.1129C208.564 70.0514 208.39 70.8717 208.043 71.5736C207.7 72.2755 207.219 72.8217 206.6 73.2121C205.985 73.6025 205.267 73.7977 204.447 73.7977ZM204.447 72.5437C205.07 72.5437 205.583 72.384 205.985 72.0645C206.387 71.7451 206.685 71.3252 206.878 70.8046C207.071 70.2841 207.168 69.7202 207.168 69.1129C207.168 68.5056 207.071 67.9397 206.878 67.4153C206.685 66.8908 206.387 66.4669 205.985 66.1435C205.583 65.8201 205.07 65.6585 204.447 65.6585C203.824 65.6585 203.311 65.8201 202.909 66.1435C202.507 66.4669 202.209 66.8908 202.016 67.4153C201.822 67.9397 201.726 68.5056 201.726 69.1129C201.726 69.7202 201.822 70.2841 202.016 70.8046C202.209 71.3252 202.507 71.7451 202.909 72.0645C203.311 72.384 203.824 72.5437 204.447 72.5437ZM214.741 64.5228V65.7058H209.843V64.5228H214.741ZM211.31 73.6084V63.2688C211.31 62.7482 211.432 62.3144 211.677 61.9674C211.921 61.6204 212.239 61.3601 212.629 61.1866C213.019 61.0131 213.431 60.9264 213.865 60.9264C214.208 60.9264 214.488 60.954 214.705 61.0092C214.922 61.0644 215.084 61.1156 215.19 61.163L214.788 62.3697C214.717 62.346 214.618 62.3164 214.492 62.2809C214.37 62.2454 214.208 62.2277 214.007 62.2277C213.546 62.2277 213.213 62.344 213.008 62.5767C212.806 62.8093 212.706 63.1505 212.706 63.6V73.6084H211.31ZM222.281 77.0155C222.044 77.0155 221.833 76.9958 221.648 76.9564C221.463 76.9209 221.335 76.8854 221.264 76.8499L221.618 75.6195C221.958 75.7063 222.257 75.7378 222.518 75.7142C222.778 75.6905 223.009 75.5742 223.21 75.3652C223.415 75.1601 223.602 74.8269 223.772 74.3655L224.032 73.6557L220.672 64.5228H222.186L224.694 71.7629H224.789L227.297 64.5228H228.811L224.955 74.9334C224.781 75.4027 224.566 75.7911 224.31 76.0987C224.054 76.4102 223.756 76.6409 223.417 76.7907C223.081 76.9406 222.703 77.0155 222.281 77.0155ZM234.02 73.7977C233.199 73.7977 232.48 73.6025 231.861 73.2121C231.245 72.8217 230.764 72.2755 230.417 71.5736C230.074 70.8717 229.903 70.0514 229.903 69.1129C229.903 68.1665 230.074 67.3403 230.417 66.6345C230.764 65.9286 231.245 65.3805 231.861 64.9901C232.48 64.5997 233.199 64.4045 234.02 64.4045C234.84 64.4045 235.557 64.5997 236.173 64.9901C236.792 65.3805 237.273 65.9286 237.616 66.6345C237.963 67.3403 238.136 68.1665 238.136 69.1129C238.136 70.0514 237.963 70.8717 237.616 71.5736C237.273 72.2755 236.792 72.8217 236.173 73.2121C235.557 73.6025 234.84 73.7977 234.02 73.7977ZM234.02 72.5437C234.643 72.5437 235.155 72.384 235.557 72.0645C235.96 71.7451 236.257 71.3252 236.451 70.8046C236.644 70.2841 236.74 69.7202 236.74 69.1129C236.74 68.5056 236.644 67.9397 236.451 67.4153C236.257 66.8908 235.96 66.4669 235.557 66.1435C235.155 65.8201 234.643 65.6585 234.02 65.6585C233.396 65.6585 232.884 65.8201 232.482 66.1435C232.079 66.4669 231.782 66.8908 231.588 67.4153C231.395 67.9397 231.299 68.5056 231.299 69.1129C231.299 69.7202 231.395 70.2841 231.588 70.8046C231.782 71.3252 232.079 71.7451 232.482 72.0645C232.884 72.384 233.396 72.5437 234.02 72.5437ZM245.993 69.8937V64.5228H247.389V73.6084H245.993V72.0705H245.899C245.686 72.5318 245.354 72.9242 244.905 73.2476C244.455 73.567 243.887 73.7267 243.201 73.7267C242.633 73.7267 242.129 73.6025 241.687 73.354C241.245 73.1017 240.898 72.7231 240.646 72.2183C240.394 71.7096 240.267 71.0688 240.267 70.2959V64.5228H241.663V70.2013C241.663 70.8638 241.849 71.3922 242.219 71.7865C242.594 72.1809 243.071 72.3781 243.651 72.3781C243.998 72.3781 244.351 72.2893 244.71 72.1119C245.072 71.9344 245.376 71.6623 245.621 71.2956C245.869 70.9288 245.993 70.4616 245.993 69.8937ZM256.476 61.4942L256.358 70.2013H254.986L254.867 61.4942H256.476ZM255.672 73.703C255.38 73.703 255.13 73.5985 254.921 73.3895C254.712 73.1805 254.607 72.9301 254.607 72.6383C254.607 72.3465 254.712 72.0961 254.921 71.8871C255.13 71.6781 255.38 71.5736 255.672 71.5736C255.964 71.5736 256.214 71.6781 256.423 71.8871C256.632 72.0961 256.737 72.3465 256.737 72.6383C256.737 72.8315 256.687 73.009 256.589 73.1707C256.494 73.3324 256.366 73.4625 256.204 73.5611C256.046 73.6557 255.869 73.703 255.672 73.703Z" fill="#828282"/>
<defs>
<clipPath id="clip0_291_3288">
<rect width="154" height="47.4729" fill="white" transform="translate(118)"/>
</clipPath>
</defs>
</svg>
