<svg width="34" height="34" viewBox="0 0 34 34" fill="none" xmlns="http://www.w3.org/2000/svg">
<path d="M22.6663 2.83325H11.333C5.66634 2.83325 2.83301 5.66659 2.83301 11.3333V29.7499C2.83301 30.5291 3.47051 31.1666 4.24967 31.1666H22.6663C28.333 31.1666 31.1663 28.3333 31.1663 22.6666V11.3333C31.1663 5.66659 28.333 2.83325 22.6663 2.83325Z" fill="#C5D3E3"/>
<path d="M23.4465 10.5684C21.6615 8.78336 19.9332 8.74086 18.1057 10.5684L16.9865 11.6875C16.8873 11.7867 16.859 11.9284 16.8874 12.0559C17.5815 14.4925 19.5224 16.4334 21.959 17.1275C21.9874 17.1417 22.0298 17.1417 22.0723 17.1417C22.1715 17.1417 22.2707 17.0992 22.3415 17.0284L23.4465 15.9234C24.3532 15.0167 24.7924 14.1525 24.7924 13.2742C24.7924 12.3534 24.3532 11.475 23.4465 10.5684Z" fill="#0D0D0D"/>
<path d="M20.3153 17.9491C20.0461 17.8216 19.7911 17.6941 19.5503 17.5383C19.3519 17.4249 19.1536 17.2974 18.9695 17.1558C18.8136 17.0566 18.6294 16.9149 18.4453 16.7591C18.4169 16.7449 18.3603 16.7024 18.2895 16.6174C17.992 16.3624 17.6519 16.0224 17.3403 15.6683C17.3119 15.6541 17.2694 15.5833 17.2128 15.4983C17.1136 15.3849 16.972 15.2008 16.8303 15.0024C16.717 14.8608 16.5895 14.6624 16.4761 14.4641C16.3345 14.2233 16.1928 13.9683 16.0795 13.7133C15.952 13.4299 15.8528 13.1749 15.7536 12.9199L10.4128 18.2608C10.0586 18.6149 9.7328 19.2666 9.66196 19.7483L9.25112 22.6949C9.15195 23.3183 9.3361 23.8991 9.7186 24.2958C10.0444 24.6216 10.4978 24.7916 10.9936 24.7916C11.107 24.7916 11.2061 24.7774 11.3194 24.7633L14.2661 24.3524C14.7478 24.2816 15.3994 23.9558 15.7536 23.6016L21.0945 18.2608C20.8395 18.1616 20.5844 18.0624 20.3153 17.9491Z" fill="#0D0D0D"/>
</svg>
