<svg width="34" height="34" viewBox="0 0 34 34" fill="none" xmlns="http://www.w3.org/2000/svg">
<path d="M22.6667 2.83325H11.3334C5.66671 2.83325 2.83337 5.66659 2.83337 11.3333V29.7499C2.83337 30.5291 3.47087 31.1666 4.25004 31.1666H22.6667C28.3334 31.1666 31.1667 28.3333 31.1667 22.6666V11.3333C31.1667 5.66659 28.3334 2.83325 22.6667 2.83325Z" fill="#1C2A3A"/>
<path d="M23.4459 10.5684C21.6609 8.78336 19.9326 8.74086 18.1051 10.5684L16.9859 11.6875C16.8867 11.7867 16.8584 11.9284 16.8868 12.0559C17.5809 14.4925 19.5217 16.4334 21.9584 17.1275C21.9867 17.1417 22.0292 17.1417 22.0717 17.1417C22.1709 17.1417 22.2701 17.0992 22.3409 17.0284L23.4459 15.9234C24.3526 15.0167 24.7917 14.1525 24.7917 13.2742C24.7917 12.3534 24.3526 11.475 23.4459 10.5684Z" fill="white"/>
<path d="M20.315 17.9491C20.0459 17.8216 19.7909 17.6941 19.55 17.5383C19.3517 17.4249 19.1534 17.2974 18.9692 17.1558C18.8134 17.0566 18.6292 16.9149 18.445 16.7591C18.4167 16.7449 18.36 16.7024 18.2892 16.6174C17.9917 16.3624 17.6517 16.0224 17.34 15.6683C17.3117 15.6541 17.2692 15.5833 17.2125 15.4983C17.1134 15.3849 16.9717 15.2008 16.83 15.0024C16.7167 14.8608 16.5892 14.6624 16.4759 14.4641C16.3342 14.2233 16.1925 13.9683 16.0792 13.7133C15.9517 13.4299 15.8525 13.1749 15.7534 12.9199L10.4125 18.2608C10.0584 18.6149 9.73255 19.2666 9.66172 19.7483L9.25087 22.6949C9.15171 23.3183 9.33585 23.8991 9.71835 24.2958C10.0442 24.6216 10.4976 24.7916 10.9934 24.7916C11.1067 24.7916 11.2059 24.7774 11.3192 24.7633L14.2659 24.3524C14.7476 24.2816 15.3992 23.9558 15.7534 23.6016L21.0942 18.2608C20.8392 18.1616 20.5842 18.0624 20.315 17.9491Z" fill="white"/>
</svg>
