<svg width="27" height="26" viewBox="0 0 27 26" fill="none" xmlns="http://www.w3.org/2000/svg">
<path d="M17.9015 4.75V6.5H17.0265V18.75C17.0265 19.6783 16.6578 20.5685 16.0014 21.2249C15.345 21.8813 14.4548 22.25 13.5265 22.25C12.5982 22.25 11.708 21.8813 11.0516 21.2249C10.3953 20.5685 10.0265 19.6783 10.0265 18.75V6.5H9.1515V4.75H17.9015ZM14.4015 16.125C14.1694 16.125 13.9469 16.2172 13.7828 16.3813C13.6187 16.5454 13.5265 16.7679 13.5265 17C13.5265 17.2321 13.6187 17.4546 13.7828 17.6187C13.9469 17.7828 14.1694 17.875 14.4015 17.875C14.6336 17.875 14.8561 17.7828 15.0202 17.6187C15.1843 17.4546 15.2765 17.2321 15.2765 17C15.2765 16.7679 15.1843 16.5454 15.0202 16.3813C14.8561 16.2172 14.6336 16.125 14.4015 16.125ZM12.6515 13.5C12.4194 13.5 12.1969 13.5922 12.0328 13.7563C11.8687 13.9204 11.7765 14.1429 11.7765 14.375C11.7765 14.6071 11.8687 14.8296 12.0328 14.9937C12.1969 15.1578 12.4194 15.25 12.6515 15.25C12.8836 15.25 13.1061 15.1578 13.2702 14.9937C13.4343 14.8296 13.5265 14.6071 13.5265 14.375C13.5265 14.1429 13.4343 13.9204 13.2702 13.7563C13.1061 13.5922 12.8836 13.5 12.6515 13.5ZM15.2765 6.5H11.7765V10H15.2765V6.5Z" fill="#FFDF00"/>
</svg>
