<svg width="17" height="17" viewBox="0 0 17 17" fill="none" xmlns="http://www.w3.org/2000/svg">
<path d="M15.2948 7.57166V10.8371C15.2948 13.123 13.9886 14.1026 12.0293 14.1026H5.49838C3.5391 14.1026 2.23291 13.123 2.23291 10.8371V6.26547C2.23291 3.97964 3.5391 3 5.49838 3H10.07" stroke="#9CA3AF" stroke-width="0.979641" stroke-miterlimit="10" stroke-linecap="round" stroke-linejoin="round"/>
<path d="M5.49957 6.5918L7.54376 8.22453C8.21645 8.76007 9.32017 8.76007 9.99286 8.22453L10.7635 7.61062" stroke="#9CA3AF" stroke-width="0.979641" stroke-miterlimit="10" stroke-linecap="round" stroke-linejoin="round"/>
<path d="M13.6619 5.93832C14.5636 5.93832 15.2946 5.20732 15.2946 4.30559C15.2946 3.40385 14.5636 2.67285 13.6619 2.67285C12.7602 2.67285 12.0292 3.40385 12.0292 4.30559C12.0292 5.20732 12.7602 5.93832 13.6619 5.93832Z" stroke="#9CA3AF" stroke-width="0.979641" stroke-miterlimit="10" stroke-linecap="round" stroke-linejoin="round"/>
</svg>
