<svg width="92" height="60" viewBox="0 0 92 60" fill="none" xmlns="http://www.w3.org/2000/svg">
<path d="M28.921 32.2595V13.6624C28.921 11.537 28.921 10.4743 29.3347 9.6621C29.6991 8.94668 30.2779 8.36789 30.9933 8.00354C31.8055 7.58984 32.8682 7.58984 34.9936 7.58984H57.0065C59.1319 7.58984 60.1946 7.58984 61.0068 8.00354C61.7209 8.3674 62.3015 8.94799 62.6654 9.6621C63.0791 10.4724 63.0791 11.5351 63.0791 13.6567V31.8857C63.0791 32.8061 63.0791 33.5272 63.0449 34.1136M28.921 32.2595C28.921 34.1344 28.9457 35.1174 29.3347 35.8784C29.6991 36.5938 30.2779 37.1745 30.9933 37.5389C31.8036 37.9526 32.8663 37.9526 34.9879 37.9526H57.0141C59.1357 37.9526 60.1965 37.9526 61.0068 37.5389C61.7203 37.1745 62.301 36.5938 62.6654 35.8784C62.8988 35.4192 63.0013 34.8802 63.0449 34.1136M28.921 32.2595L37.9691 21.7047L37.971 21.7009C38.7737 20.7654 39.176 20.2966 39.6523 20.1258C40.071 19.9777 40.5283 19.9811 40.9447 20.1353C41.4191 20.3118 41.8176 20.7862 42.607 21.7351L47.6757 27.8171C48.4082 28.6976 48.7763 29.1379 49.2242 29.3163C49.6185 29.4714 50.0534 29.4901 50.4596 29.3694C50.9226 29.2328 51.3325 28.8248 52.1466 28.0107L53.0897 27.0675C53.919 26.2363 54.3346 25.8227 54.8052 25.686C55.2179 25.5665 55.6591 25.5912 56.0558 25.7562C56.5074 25.9441 56.8737 26.4014 57.6081 27.3161L63.0449 34.1136M63.0449 34.1136L63.0791 34.1572M51.6931 18.9759C51.1898 18.9759 50.7071 18.7759 50.3512 18.42C49.9953 18.0642 49.7954 17.5815 49.7954 17.0782C49.7954 16.5749 49.9953 16.0922 50.3512 15.7363C50.7071 15.3805 51.1898 15.1805 51.6931 15.1805C52.1963 15.1805 52.679 15.3805 53.0349 15.7363C53.3908 16.0922 53.5907 16.5749 53.5907 17.0782C53.5907 17.5815 53.3908 18.0642 53.0349 18.42C52.679 18.7759 52.1963 18.9759 51.6931 18.9759Z" stroke="#C6C6C6" stroke-width="3.79534" stroke-linecap="round" stroke-linejoin="round"/>
<path d="M5.3006 48.6562H6.54833V53.1561C6.54833 53.6494 6.43174 54.0832 6.19856 54.4577C5.96762 54.8321 5.64252 55.1247 5.22325 55.3354C4.80398 55.5439 4.31408 55.6482 3.75356 55.6482C3.1908 55.6482 2.69978 55.5439 2.28051 55.3354C1.86124 55.1247 1.53613 54.8321 1.3052 54.4577C1.07426 54.0832 0.958795 53.6494 0.958795 53.1561V48.6562H2.20652V53.0519C2.20652 53.3388 2.2693 53.5944 2.39485 53.8187C2.52265 54.0429 2.70202 54.2189 2.93296 54.3467C3.16389 54.4722 3.43743 54.535 3.75356 54.535C4.0697 54.535 4.34323 54.4722 4.57417 54.3467C4.80734 54.2189 4.98671 54.0429 5.11227 53.8187C5.23782 53.5944 5.3006 53.3388 5.3006 53.0519V48.6562ZM7.8507 57.4811V50.3782H9.04798V51.2324H9.1186C9.18138 51.1068 9.26994 50.9734 9.38429 50.8322C9.49864 50.6887 9.65334 50.5665 9.8484 50.4656C10.0435 50.3625 10.2923 50.3109 10.595 50.3109C10.9941 50.3109 11.354 50.4129 11.6746 50.617C11.9974 50.8187 12.253 51.1181 12.4414 51.5149C12.632 51.9095 12.7272 52.3938 12.7272 52.9678C12.7272 53.535 12.6342 54.0171 12.4481 54.4139C12.262 54.8108 12.0087 55.1135 11.688 55.322C11.3674 55.5305 11.0042 55.6347 10.5984 55.6347C10.3024 55.6347 10.0569 55.5854 9.86185 55.4868C9.66679 55.3881 9.50985 55.2693 9.39102 55.1303C9.27443 54.989 9.18362 54.8556 9.1186 54.7301H9.06815V57.4811H7.8507ZM9.04461 52.9611C9.04461 53.2951 9.0917 53.5877 9.18586 53.8388C9.28227 54.0899 9.42016 54.2861 9.59953 54.4274C9.78114 54.5664 10.0009 54.6359 10.2587 54.6359C10.5278 54.6359 10.7531 54.5642 10.9347 54.4207C11.1163 54.2749 11.2531 54.0765 11.345 53.8254C11.4392 53.572 11.4862 53.2839 11.4862 52.9611C11.4862 52.6404 11.4403 52.3557 11.3484 52.1068C11.2564 51.8579 11.1197 51.6629 10.9381 51.5216C10.7564 51.3804 10.53 51.3098 10.2587 51.3098C9.99862 51.3098 9.77778 51.3781 9.59617 51.5149C9.41456 51.6517 9.27667 51.8434 9.1825 52.09C9.09058 52.3366 9.04461 52.627 9.04461 52.9611ZM14.9873 48.6562V55.5439H13.7698V48.6562H14.9873ZM18.4925 55.6448C17.988 55.6448 17.5508 55.5339 17.1809 55.3119C16.8109 55.0899 16.5239 54.7794 16.3199 54.3803C16.1181 53.9812 16.0172 53.5149 16.0172 52.9812C16.0172 52.4476 16.1181 51.9801 16.3199 51.5788C16.5239 51.1775 16.8109 50.8658 17.1809 50.6439C17.5508 50.4219 17.988 50.3109 18.4925 50.3109C18.997 50.3109 19.4342 50.4219 19.8041 50.6439C20.1741 50.8658 20.4599 51.1775 20.6617 51.5788C20.8658 51.9801 20.9678 52.4476 20.9678 52.9812C20.9678 53.5149 20.8658 53.9812 20.6617 54.3803C20.4599 54.7794 20.1741 55.0899 19.8041 55.3119C19.4342 55.5339 18.997 55.6448 18.4925 55.6448ZM18.4992 54.6695C18.7728 54.6695 19.0015 54.5944 19.1853 54.4442C19.3692 54.2917 19.5059 54.0877 19.5956 53.8321C19.6875 53.5765 19.7335 53.2918 19.7335 52.9779C19.7335 52.6617 19.6875 52.3759 19.5956 52.1203C19.5059 51.8624 19.3692 51.6573 19.1853 51.5048C19.0015 51.3524 18.7728 51.2761 18.4992 51.2761C18.219 51.2761 17.9858 51.3524 17.7997 51.5048C17.6158 51.6573 17.478 51.8624 17.386 52.1203C17.2963 52.3759 17.2515 52.6617 17.2515 52.9779C17.2515 53.2918 17.2963 53.5765 17.386 53.8321C17.478 54.0877 17.6158 54.2917 17.7997 54.4442C17.9858 54.5944 18.219 54.6695 18.4992 54.6695ZM23.4876 55.6482C23.1602 55.6482 22.8654 55.5899 22.6031 55.4733C22.343 55.3545 22.1367 55.1796 21.9843 54.9487C21.8341 54.7177 21.7589 54.433 21.7589 54.0944C21.7589 53.803 21.8128 53.5619 21.9204 53.3714C22.028 53.1808 22.1749 53.0283 22.3609 52.914C22.547 52.7996 22.7567 52.7133 22.9899 52.655C23.2253 52.5945 23.4685 52.5508 23.7197 52.5239C24.0223 52.4925 24.2678 52.4644 24.4562 52.4398C24.6445 52.4129 24.7813 52.3725 24.8665 52.3187C24.9539 52.2626 24.9976 52.1763 24.9976 52.0597V52.0396C24.9976 51.7862 24.9225 51.59 24.7723 51.451C24.6221 51.312 24.4057 51.2425 24.1232 51.2425C23.825 51.2425 23.5885 51.3075 23.4136 51.4376C23.241 51.5676 23.1244 51.7212 23.0638 51.8983L21.9271 51.7369C22.0168 51.423 22.1648 51.1607 22.371 50.9499C22.5773 50.7369 22.8295 50.5777 23.1277 50.4723C23.4259 50.3647 23.7555 50.3109 24.1165 50.3109C24.3654 50.3109 24.6131 50.3401 24.8598 50.3983C25.1064 50.4566 25.3317 50.5531 25.5357 50.6876C25.7398 50.8199 25.9034 51.0003 26.0268 51.229C26.1523 51.4577 26.2151 51.7436 26.2151 52.0866V55.5439H25.0447V54.8343H25.0044C24.9304 54.9778 24.8261 55.1123 24.6916 55.2379C24.5593 55.3612 24.3923 55.461 24.1905 55.5372C23.9909 55.6112 23.7566 55.6482 23.4876 55.6482ZM23.8037 54.7536C24.0481 54.7536 24.26 54.7054 24.4394 54.609C24.6187 54.5103 24.7566 54.3803 24.853 54.2189C24.9517 54.0574 25.001 53.8814 25.001 53.6909V53.0821C24.9629 53.1135 24.8979 53.1427 24.8059 53.1696C24.7163 53.1965 24.6154 53.22 24.5033 53.2402C24.3912 53.2604 24.2802 53.2783 24.1703 53.294C24.0604 53.3097 23.9652 53.3232 23.8844 53.3344C23.7028 53.359 23.5403 53.3994 23.3968 53.4554C23.2533 53.5115 23.1401 53.59 23.0571 53.6909C22.9742 53.7895 22.9327 53.9173 22.9327 54.0743C22.9327 54.2985 23.0145 54.4677 23.1782 54.5821C23.3419 54.6964 23.5504 54.7536 23.8037 54.7536ZM29.3563 55.6347C28.9504 55.6347 28.5872 55.5305 28.2666 55.322C27.946 55.1135 27.6926 54.8108 27.5065 54.4139C27.3204 54.0171 27.2274 53.535 27.2274 52.9678C27.2274 52.3938 27.3216 51.9095 27.5099 51.5149C27.7005 51.1181 27.9572 50.8187 28.2801 50.617C28.6029 50.4129 28.9628 50.3109 29.3596 50.3109C29.6623 50.3109 29.9112 50.3625 30.1062 50.4656C30.3013 50.5665 30.456 50.6887 30.5704 50.8322C30.6847 50.9734 30.7733 51.1068 30.836 51.2324H30.8865V48.6562H32.1073V55.5439H30.91V54.7301H30.836C30.7733 54.8556 30.6825 54.989 30.5636 55.1303C30.4448 55.2693 30.2879 55.3881 30.0928 55.4868C29.8977 55.5854 29.6522 55.6347 29.3563 55.6347ZM29.6959 54.6359C29.9538 54.6359 30.1735 54.5664 30.3551 54.4274C30.5367 54.2861 30.6746 54.0899 30.7688 53.8388C30.863 53.5877 30.91 53.2951 30.91 52.9611C30.91 52.627 30.863 52.3366 30.7688 52.09C30.6769 51.8434 30.5401 51.6517 30.3585 51.5149C30.1791 51.3781 29.9583 51.3098 29.6959 51.3098C29.4246 51.3098 29.1982 51.3804 29.0166 51.5216C28.835 51.6629 28.6982 51.8579 28.6063 52.1068C28.5144 52.3557 28.4684 52.6404 28.4684 52.9611C28.4684 53.2839 28.5144 53.572 28.6063 53.8254C28.7005 54.0765 28.8383 54.2749 29.02 54.4207C29.2038 54.5642 29.4291 54.6359 29.6959 54.6359ZM41.7032 50.9802H40.4454C40.4095 50.7739 40.3433 50.5912 40.2469 50.432C40.1505 50.2705 40.0306 50.1338 39.8871 50.0217C39.7436 49.9096 39.5799 49.8255 39.3961 49.7694C39.2145 49.7111 39.0183 49.682 38.8075 49.682C38.4331 49.682 38.1013 49.7762 37.812 49.9645C37.5228 50.1506 37.2963 50.4241 37.1327 50.7851C36.969 51.1438 36.8872 51.5822 36.8872 52.1001C36.8872 52.627 36.969 53.0709 37.1327 53.4319C37.2986 53.7906 37.525 54.0619 37.812 54.2458C38.1013 54.4274 38.432 54.5182 38.8042 54.5182C39.0104 54.5182 39.2032 54.4913 39.3826 54.4375C39.5642 54.3814 39.7268 54.2996 39.8703 54.192C40.016 54.0843 40.1382 53.9521 40.2368 53.7951C40.3377 53.6382 40.4072 53.4588 40.4454 53.257L41.7032 53.2637C41.6561 53.5911 41.5541 53.8983 41.3971 54.1852C41.2424 54.4722 41.0395 54.7256 40.7884 54.9453C40.5373 55.1628 40.2436 55.3332 39.9073 55.4565C39.5709 55.5776 39.1976 55.6381 38.7873 55.6381C38.182 55.6381 37.6416 55.498 37.1663 55.2177C36.691 54.9375 36.3166 54.5328 36.043 54.0036C35.7695 53.4745 35.6327 52.84 35.6327 52.1001C35.6327 51.358 35.7706 50.7235 36.0464 50.1966C36.3222 49.6674 36.6977 49.2627 37.173 48.9825C37.6484 48.7022 38.1865 48.5621 38.7873 48.5621C39.1707 48.5621 39.5272 48.6159 39.8568 48.7235C40.1864 48.8311 40.4801 48.9892 40.738 49.1977C40.9958 49.404 41.2077 49.6573 41.3736 49.9578C41.5417 50.256 41.6516 50.5968 41.7032 50.9802ZM45.0453 55.6448C44.5408 55.6448 44.1036 55.5339 43.7337 55.3119C43.3637 55.0899 43.0767 54.7794 42.8727 54.3803C42.6709 53.9812 42.57 53.5149 42.57 52.9812C42.57 52.4476 42.6709 51.9801 42.8727 51.5788C43.0767 51.1775 43.3637 50.8658 43.7337 50.6439C44.1036 50.4219 44.5408 50.3109 45.0453 50.3109C45.5498 50.3109 45.987 50.4219 46.3569 50.6439C46.7269 50.8658 47.0127 51.1775 47.2145 51.5788C47.4185 51.9801 47.5206 52.4476 47.5206 52.9812C47.5206 53.5149 47.4185 53.9812 47.2145 54.3803C47.0127 54.7794 46.7269 55.0899 46.3569 55.3119C45.987 55.5339 45.5498 55.6448 45.0453 55.6448ZM45.052 54.6695C45.3256 54.6695 45.5542 54.5944 45.7381 54.4442C45.9219 54.2917 46.0587 54.0877 46.1484 53.8321C46.2403 53.5765 46.2863 53.2918 46.2863 52.9779C46.2863 52.6617 46.2403 52.3759 46.1484 52.1203C46.0587 51.8624 45.9219 51.6573 45.7381 51.5048C45.5542 51.3524 45.3256 51.2761 45.052 51.2761C44.7718 51.2761 44.5386 51.3524 44.3525 51.5048C44.1686 51.6573 44.0307 51.8624 43.9388 52.1203C43.8491 52.3759 43.8043 52.6617 43.8043 52.9779C43.8043 53.2918 43.8491 53.5765 43.9388 53.8321C44.0307 54.0877 44.1686 54.2917 44.3525 54.4442C44.5386 54.5944 44.7718 54.6695 45.052 54.6695ZM52.9924 50.3782L51.1527 55.5439H49.8075L47.9679 50.3782H49.266L50.4532 54.2155H50.507L51.6976 50.3782H52.9924ZM55.9461 55.6448C55.4281 55.6448 54.9808 55.5372 54.6042 55.322C54.2297 55.1045 53.9416 54.7973 53.7398 54.4005C53.538 54.0014 53.4372 53.5317 53.4372 52.9913C53.4372 52.46 53.538 51.9936 53.7398 51.5923C53.9439 51.1887 54.2286 50.8748 54.5941 50.6506C54.9595 50.4241 55.3889 50.3109 55.8822 50.3109C56.2005 50.3109 56.501 50.3625 56.7835 50.4656C57.0682 50.5665 57.3193 50.7235 57.5368 50.9365C57.7565 51.1494 57.9292 51.4207 58.0547 51.7503C58.1803 52.0777 58.2431 52.4678 58.2431 52.9207V53.294H54.0089V52.4734H57.0761C57.0738 52.2402 57.0234 52.0328 56.9247 51.8512C56.8261 51.6674 56.6882 51.5228 56.5111 51.4174C56.3362 51.312 56.1321 51.2593 55.899 51.2593C55.6501 51.2593 55.4315 51.3198 55.2432 51.4409C55.0548 51.5598 54.908 51.7167 54.8026 51.9118C54.6994 52.1046 54.6468 52.3165 54.6445 52.5474V53.2637C54.6445 53.5642 54.6994 53.822 54.8093 54.0373C54.9192 54.2503 55.0728 54.4139 55.2701 54.5283C55.4674 54.6404 55.6983 54.6964 55.9629 54.6964C56.14 54.6964 56.3003 54.6718 56.4438 54.6224C56.5873 54.5709 56.7117 54.4958 56.8171 54.3971C56.9225 54.2985 57.0021 54.1763 57.0559 54.0305L58.1926 54.1583C58.1209 54.4588 57.9841 54.7211 57.7823 54.9453C57.5828 55.1673 57.3272 55.3399 57.0155 55.4632C56.7039 55.5843 56.3474 55.6448 55.9461 55.6448ZM59.273 55.5439V50.3782H60.4535V51.2391H60.5073C60.6015 50.9409 60.7629 50.7111 60.9916 50.5497C61.2225 50.386 61.486 50.3042 61.7819 50.3042C61.8492 50.3042 61.9243 50.3075 62.0073 50.3143C62.0925 50.3188 62.1631 50.3266 62.2191 50.3378V51.4577C62.1676 51.4398 62.0857 51.4241 61.9736 51.4107C61.8638 51.395 61.7573 51.3871 61.6541 51.3871C61.4322 51.3871 61.2326 51.4353 61.0555 51.5317C60.8806 51.6259 60.7427 51.7571 60.6418 51.9252C60.5409 52.0934 60.4905 52.2873 60.4905 52.507V55.5439H59.273ZM65.4309 55.5439V48.6562H68.0138C68.543 48.6562 68.9869 48.7549 69.3456 48.9522C69.7066 49.1495 69.979 49.4208 70.1629 49.7661C70.349 50.1091 70.442 50.4992 70.442 50.9365C70.442 51.3781 70.349 51.7705 70.1629 52.1135C69.9768 52.4566 69.7021 52.7268 69.3389 52.9241C68.9757 53.1191 68.5284 53.2167 67.997 53.2167H66.2852V52.1909H67.8288C68.1383 52.1909 68.3916 52.1371 68.5889 52.0295C68.7862 51.9218 68.932 51.7739 69.0261 51.5855C69.1225 51.3972 69.1707 51.1808 69.1707 50.9365C69.1707 50.6921 69.1225 50.4768 69.0261 50.2907C68.932 50.1046 68.7851 49.96 68.5856 49.8569C68.3882 49.7515 68.1338 49.6988 67.8221 49.6988H66.6787V55.5439H65.4309ZM72.6894 52.5171V55.5439H71.472V48.6562H72.6625V51.2559H72.723C72.8441 50.9645 73.0313 50.7347 73.2847 50.5665C73.5403 50.3961 73.8654 50.3109 74.26 50.3109C74.6187 50.3109 74.9315 50.386 75.1983 50.5362C75.4651 50.6865 75.6714 50.9062 75.8171 51.1954C75.9651 51.4846 76.0391 51.8378 76.0391 52.2548V55.5439H74.8216V52.4431C74.8216 52.0956 74.732 51.8254 74.5526 51.6326C74.3755 51.4376 74.1266 51.34 73.806 51.34C73.5907 51.34 73.3979 51.3871 73.2275 51.4813C73.0594 51.5732 72.9271 51.7066 72.8307 51.8815C72.7365 52.0564 72.6894 52.2683 72.6894 52.5171ZM79.5334 55.6448C79.0289 55.6448 78.5917 55.5339 78.2218 55.3119C77.8518 55.0899 77.5648 54.7794 77.3608 54.3803C77.159 53.9812 77.0581 53.5149 77.0581 52.9812C77.0581 52.4476 77.159 51.9801 77.3608 51.5788C77.5648 51.1775 77.8518 50.8658 78.2218 50.6439C78.5917 50.4219 79.0289 50.3109 79.5334 50.3109C80.0379 50.3109 80.4751 50.4219 80.845 50.6439C81.215 50.8658 81.5008 51.1775 81.7026 51.5788C81.9067 51.9801 82.0087 52.4476 82.0087 52.9812C82.0087 53.5149 81.9067 53.9812 81.7026 54.3803C81.5008 54.7794 81.215 55.0899 80.845 55.3119C80.4751 55.5339 80.0379 55.6448 79.5334 55.6448ZM79.5401 54.6695C79.8137 54.6695 80.0424 54.5944 80.2262 54.4442C80.4101 54.2917 80.5468 54.0877 80.6365 53.8321C80.7284 53.5765 80.7744 53.2918 80.7744 52.9779C80.7744 52.6617 80.7284 52.3759 80.6365 52.1203C80.5468 51.8624 80.4101 51.6573 80.2262 51.5048C80.0424 51.3524 79.8137 51.2761 79.5401 51.2761C79.2599 51.2761 79.0267 51.3524 78.8406 51.5048C78.6567 51.6573 78.5189 51.8624 78.4269 52.1203C78.3372 52.3759 78.2924 52.6617 78.2924 52.9779C78.2924 53.2918 78.3372 53.5765 78.4269 53.8321C78.5189 54.0877 78.6567 54.2917 78.8406 54.4442C79.0267 54.5944 79.2599 54.6695 79.5401 54.6695ZM85.6215 50.3782V51.3198H82.6519V50.3782H85.6215ZM83.385 49.1405H84.6025V53.9902C84.6025 54.1538 84.6271 54.2794 84.6765 54.3668C84.728 54.452 84.7953 54.5103 84.8783 54.5417C84.9612 54.5731 85.0531 54.5888 85.154 54.5888C85.2303 54.5888 85.2998 54.5832 85.3625 54.572C85.4276 54.5608 85.4769 54.5507 85.5105 54.5417L85.7157 55.4935C85.6507 55.5159 85.5576 55.5406 85.4365 55.5675C85.3177 55.5944 85.172 55.6101 84.9993 55.6146C84.6944 55.6235 84.4198 55.5776 84.1754 55.4767C83.931 55.3735 83.737 55.2144 83.5935 54.9991C83.4523 54.7839 83.3828 54.5148 83.385 54.192V49.1405ZM88.8375 55.6448C88.333 55.6448 87.8958 55.5339 87.5259 55.3119C87.1559 55.0899 86.869 54.7794 86.6649 54.3803C86.4631 53.9812 86.3622 53.5149 86.3622 52.9812C86.3622 52.4476 86.4631 51.9801 86.6649 51.5788C86.869 51.1775 87.1559 50.8658 87.5259 50.6439C87.8958 50.4219 88.333 50.3109 88.8375 50.3109C89.342 50.3109 89.7792 50.4219 90.1491 50.6439C90.5191 50.8658 90.8049 51.1775 91.0067 51.5788C91.2108 51.9801 91.3128 52.4476 91.3128 52.9812C91.3128 53.5149 91.2108 53.9812 91.0067 54.3803C90.8049 54.7794 90.5191 55.0899 90.1491 55.3119C89.7792 55.5339 89.342 55.6448 88.8375 55.6448ZM88.8442 54.6695C89.1178 54.6695 89.3465 54.5944 89.5303 54.4442C89.7142 54.2917 89.8509 54.0877 89.9406 53.8321C90.0325 53.5765 90.0785 53.2918 90.0785 52.9779C90.0785 52.6617 90.0325 52.3759 89.9406 52.1203C89.8509 51.8624 89.7142 51.6573 89.5303 51.5048C89.3465 51.3524 89.1178 51.2761 88.8442 51.2761C88.564 51.2761 88.3308 51.3524 88.1447 51.5048C87.9609 51.6573 87.823 51.8624 87.731 52.1203C87.6414 52.3759 87.5965 52.6617 87.5965 52.9779C87.5965 53.2918 87.6414 53.5765 87.731 53.8321C87.823 54.0877 87.9609 54.2917 88.1447 54.4442C88.3308 54.5944 88.564 54.6695 88.8442 54.6695Z" fill="#C6C6C6"/>
</svg>
