<svg width="19" height="18" viewBox="0 0 19 18" fill="none" xmlns="http://www.w3.org/2000/svg">
<path fill-rule="evenodd" clip-rule="evenodd" d="M9.25 0C14.3586 0 18.5 3.88253 18.5 8.67188C18.5 13.4612 14.3586 17.3438 9.25 17.3438C4.14137 17.3438 0 13.4612 0 8.67188C0 3.88253 4.14137 0 9.25 0ZM12.8821 11.3602C11.9618 12.4652 10.7731 13.004 9.25006 13.004C7.72697 13.004 6.53829 12.4652 5.61805 11.3602C5.35606 11.0456 4.87165 10.9897 4.53609 11.2353C4.20054 11.481 4.14091 11.9351 4.4029 12.2497C5.61656 13.707 7.25427 14.4493 9.25006 14.4493C11.2459 14.4493 12.8836 13.707 14.0972 12.2497C14.3592 11.9351 14.2996 11.481 13.964 11.2353C13.6285 10.9897 13.1441 11.0456 12.8821 11.3602ZM6.16668 5.78125C5.5281 5.78125 5.01043 6.42834 5.01043 7.22656C5.01043 8.02479 5.5281 8.67188 6.16668 8.67188C6.80526 8.67188 7.32293 8.02479 7.32293 7.22656C7.32293 6.42834 6.80526 5.78125 6.16668 5.78125ZM12.3334 5.78125C11.6948 5.78125 11.1772 6.42834 11.1772 7.22656C11.1772 8.02479 11.6948 8.67188 12.3334 8.67188C12.972 8.67188 13.4897 8.02479 13.4897 7.22656C13.4897 6.42834 12.972 5.78125 12.3334 5.78125Z" fill="#A5ABB3"/>
</svg>
