<svg width="17" height="17" viewBox="0 0 17 17" fill="none" xmlns="http://www.w3.org/2000/svg">
<path d="M12.5764 3.72909C12.0521 3.20776 11.3436 2.91398 10.6042 2.91136C9.86484 2.90875 9.15421 3.19752 8.62624 3.71514L3.97811 8.2823C3.84649 8.4124 3.66859 8.4849 3.48353 8.48386C3.29847 8.48281 3.12139 8.4083 2.99126 8.27672C2.92685 8.21179 2.87591 8.13476 2.84138 8.05007C2.80685 7.96538 2.78941 7.87469 2.79006 7.78324C2.79071 7.69178 2.80943 7.60135 2.84516 7.51716C2.88089 7.43297 2.93291 7.35667 2.99824 7.29266L7.64497 2.72689C8.43555 1.95087 9.50006 1.51762 10.6079 1.52102C11.7157 1.52441 12.7775 1.96418 13.5633 2.74503C13.9531 3.13251 14.2625 3.59325 14.4736 4.10074C14.6847 4.60823 14.7934 5.15246 14.7934 5.7021C14.7934 6.25175 14.6847 6.79597 14.4736 7.30346C14.2625 7.81095 13.9531 8.27169 13.5633 8.65918L7.51655 14.6808C7.00239 15.1919 6.30689 15.4788 5.58192 15.4788C4.85696 15.4788 4.16146 15.1919 3.6473 14.6808C3.39336 14.4283 3.19185 14.128 3.05434 13.7973C2.91683 13.4666 2.84604 13.112 2.84604 12.7539C2.84604 12.3957 2.91683 12.0411 3.05434 11.7104C3.19185 11.3797 3.39336 11.0795 3.6473 10.8269L9.28647 5.21147C9.41729 5.08106 9.59447 5.00782 9.7792 5.00782C9.96392 5.00782 10.1411 5.08106 10.2719 5.21147C10.3366 5.27592 10.3879 5.35249 10.4229 5.43681C10.4579 5.52112 10.4759 5.61151 10.4759 5.7028C10.4759 5.79409 10.4579 5.88449 10.4229 5.9688C10.3879 6.05311 10.3366 6.12969 10.2719 6.19414L4.63415 11.8096C4.5097 11.9333 4.41093 12.0805 4.34353 12.2425C4.27614 12.4046 4.24144 12.5783 4.24144 12.7539C4.24144 12.9294 4.27614 13.1031 4.34353 13.2652C4.41093 13.4273 4.5097 13.5744 4.63415 13.6981C4.88613 13.9494 5.22746 14.0905 5.58332 14.0905C5.93918 14.0905 6.28051 13.9494 6.53249 13.6981L12.5764 7.67651C12.8366 7.41785 13.043 7.11032 13.1839 6.7716C13.3248 6.43288 13.3973 6.06965 13.3973 5.7028C13.3973 5.33595 13.3248 4.97273 13.1839 4.634C13.043 4.29528 12.8366 3.98775 12.5764 3.72909Z" fill="#9CA3AF"/>
</svg>
