<svg width="23" height="29" viewBox="0 0 23 29" fill="none" xmlns="http://www.w3.org/2000/svg">
<path d="M22.3063 23.2136L21.0492 7.37293C20.9709 6.35239 20.1078 5.55293 19.0843 5.55293H16.6012V5.44132C16.6012 2.44095 14.1603 0 11.1599 0C8.15952 0 5.71858 2.44095 5.71858 5.44132V5.55293H3.23557C2.21201 5.55293 1.34888 6.35234 1.2708 7.37079L0.0133009 23.2157C-0.0840137 24.4844 0.356101 25.7474 1.22072 26.6809C2.08533 27.6143 3.311 28.1498 4.5834 28.1498H17.7363C19.0087 28.1498 20.2344 27.6144 21.0991 26.6809C21.9637 25.7474 22.4037 24.4844 22.3063 23.2136ZM7.36743 5.44132C7.36743 3.35015 9.06878 1.64885 11.1599 1.64885C13.251 1.64885 14.9524 3.35021 14.9524 5.44132V5.55293H7.36743V5.44132ZM19.8893 25.5605C19.3276 26.1669 18.563 26.5009 17.7363 26.5009H4.58346C3.75678 26.5009 2.99223 26.1669 2.43044 25.5605C1.86871 24.954 1.59414 24.166 1.65726 23.344L2.91465 7.499C2.92741 7.3323 3.06838 7.20178 3.23557 7.20178H5.71858V9.23246C5.71858 9.68775 6.08771 10.0569 6.543 10.0569C6.99829 10.0569 7.36743 9.68775 7.36743 9.23246V7.20178H14.9524V9.23246C14.9524 9.68775 15.3215 10.0569 15.7768 10.0569C16.2321 10.0569 16.6012 9.68775 16.6012 9.23246V7.20178H19.0843C19.2514 7.20178 19.3924 7.33236 19.4054 7.5012L20.6625 23.3418C20.7257 24.166 20.4511 24.9539 19.8893 25.5605Z" fill="#C31B1B"/>
</svg>
