<svg width="8" height="12" viewBox="0 0 8 12" fill="none" xmlns="http://www.w3.org/2000/svg">
<path d="M7.5823 6.67978C7.56814 6.64009 7.55131 6.6014 7.53191 6.56399L7.53433 6.56932C7.4636 6.40412 6.89484 5.30535 6.79989 5.15565L4.15907 0.0600586L1.45092 5.28064C1.35887 5.43083 0.854058 6.4046 0.784295 6.56932L0.756681 6.63036C0.576569 7.06934 0.484709 7.5395 0.48635 8.01399C0.48635 8.98818 0.873347 9.92248 1.56221 10.6113C2.25107 11.3002 3.18536 11.6872 4.15956 11.6872C5.13375 11.6872 6.06805 11.3002 6.75691 10.6113C7.44577 9.92248 7.83276 8.98818 7.83276 8.01399V8.01108L7.83325 7.96215C7.83325 7.49949 7.7412 7.05814 7.57406 6.65604L7.5823 6.67881V6.67978ZM4.16101 10.7275C3.69112 10.7276 3.2293 10.6053 2.82102 10.3727C2.41274 10.1401 2.07208 9.80516 1.83256 9.40089C1.59305 8.99662 1.46295 8.53695 1.45507 8.06712C1.44719 7.59729 1.5618 7.13351 1.78762 6.72144L1.78035 6.73549C1.74487 6.92414 1.72703 7.11568 1.72706 7.30764V7.30813C1.72758 8.16832 2.06951 8.99314 2.67777 9.60139C3.28602 10.2096 4.11084 10.5516 4.97103 10.5521C5.02578 10.5521 5.0844 10.5521 5.13866 10.5492C4.82902 10.6682 4.49998 10.7286 4.16828 10.7275H4.15713H4.16101Z" fill="#C31B1B"/>
</svg>
