<svg width="28" height="29" viewBox="0 0 28 29" fill="none" xmlns="http://www.w3.org/2000/svg">
<g clip-path="url(#clip0_113_3617)">
<path d="M13.6455 0.757812C6.11717 0.757812 0.00244141 6.87254 0.00244141 14.4009C0.00244141 21.9292 6.11717 28.0439 13.6455 28.0439C21.1739 28.0439 27.2886 21.9292 27.2886 14.4009C27.2886 6.87254 21.1739 0.757812 13.6455 0.757812ZM13.6455 26.8605C6.77466 26.8605 1.18594 21.2717 1.18594 14.4009C1.18594 7.53003 6.77466 1.94131 13.6455 1.94131C20.5164 1.94131 26.1051 7.53003 26.1051 14.4009C26.1051 21.2717 20.5164 26.8605 13.6455 26.8605Z" fill="white"/>
<path d="M20.7463 11.442H16.6041V7.29976C16.6041 6.97101 16.3411 6.70801 16.0123 6.70801H11.2784C10.9496 6.70801 10.6866 6.97101 10.6866 7.29976V11.442H6.54438C6.21564 11.442 5.95264 11.705 5.95264 12.0337V16.7677C5.95264 17.0965 6.21564 17.3595 6.54438 17.3595H10.6866V21.5017C10.6866 21.8304 10.9496 22.0934 11.2784 22.0934H16.0123C16.3411 22.0934 16.6041 21.8304 16.6041 21.5017V17.3595H20.7463C21.0751 17.3595 21.3381 17.0965 21.3381 16.7677V12.0337C21.3052 11.705 21.0422 11.442 20.7463 11.442ZM20.1875 16.176H20.1546H16.0123C15.6836 16.176 15.4206 16.439 15.4206 16.7677V20.9099H11.8701V16.7677C11.8701 16.439 11.6071 16.176 11.2784 16.176H7.13613V12.6255H11.2784C11.6071 12.6255 11.8701 12.3625 11.8701 12.0337V7.8915H15.4535V12.0337C15.4535 12.3625 15.7165 12.6255 16.0452 12.6255H20.1875V16.176Z" fill="white"/>
</g>
<defs>
<clipPath id="clip0_113_3617">
<rect width="27.2861" height="27.2861" fill="white" transform="translate(0.00244141 0.757812)"/>
</clipPath>
</defs>
</svg>
