<svg width="25" height="24" viewBox="0 0 25 24" fill="none" xmlns="http://www.w3.org/2000/svg">
<path d="M17.2303 3.56V2C17.2303 1.59 16.8903 1.25 16.4803 1.25C16.0703 1.25 15.7303 1.59 15.7303 2V3.5H9.23033V2C9.23033 1.59 8.89033 1.25 8.48033 1.25C8.07033 1.25 7.73033 1.59 7.73033 2V3.56C5.03033 3.81 3.72033 5.42 3.52033 7.81C3.50033 8.1 3.74033 8.34 4.02033 8.34H20.9403C21.2303 8.34 21.4703 8.09 21.4403 7.81C21.2403 5.42 19.9303 3.81 17.2303 3.56Z" fill="#4B5563"/>
<path d="M20.4803 9.83984H4.48035C3.93035 9.83984 3.48035 10.2898 3.48035 10.8398V16.9998C3.48035 19.9998 4.98035 21.9998 8.48035 21.9998H16.4803C19.9803 21.9998 21.4803 19.9998 21.4803 16.9998V10.8398C21.4803 10.2898 21.0303 9.83984 20.4803 9.83984ZM9.69035 18.2098C9.64035 18.2498 9.59035 18.2998 9.54035 18.3298C9.48035 18.3698 9.42035 18.3998 9.36035 18.4198C9.30035 18.4498 9.24035 18.4698 9.18035 18.4798C9.11035 18.4898 9.05035 18.4998 8.98035 18.4998C8.85035 18.4998 8.72035 18.4698 8.60035 18.4198C8.47035 18.3698 8.37035 18.2998 8.27035 18.2098C8.09035 18.0198 7.98035 17.7598 7.98035 17.4998C7.98035 17.2398 8.09035 16.9798 8.27035 16.7898C8.37035 16.6998 8.47035 16.6298 8.60035 16.5798C8.78035 16.4998 8.98035 16.4798 9.18035 16.5198C9.24035 16.5298 9.30035 16.5498 9.36035 16.5798C9.42035 16.5998 9.48035 16.6298 9.54035 16.6698C9.59035 16.7098 9.64035 16.7498 9.69035 16.7898C9.87035 16.9798 9.98035 17.2398 9.98035 17.4998C9.98035 17.7598 9.87035 18.0198 9.69035 18.2098ZM9.69035 14.7098C9.50035 14.8898 9.24035 14.9998 8.98035 14.9998C8.72035 14.9998 8.46035 14.8898 8.27035 14.7098C8.09035 14.5198 7.98035 14.2598 7.98035 13.9998C7.98035 13.7398 8.09035 13.4798 8.27035 13.2898C8.55035 13.0098 8.99035 12.9198 9.36035 13.0798C9.49035 13.1298 9.60035 13.1998 9.69035 13.2898C9.87035 13.4798 9.98035 13.7398 9.98035 13.9998C9.98035 14.2598 9.87035 14.5198 9.69035 14.7098ZM13.1903 18.2098C13.0003 18.3898 12.7403 18.4998 12.4803 18.4998C12.2203 18.4998 11.9603 18.3898 11.7703 18.2098C11.5903 18.0198 11.4803 17.7598 11.4803 17.4998C11.4803 17.2398 11.5903 16.9798 11.7703 16.7898C12.1403 16.4198 12.8203 16.4198 13.1903 16.7898C13.3703 16.9798 13.4803 17.2398 13.4803 17.4998C13.4803 17.7598 13.3703 18.0198 13.1903 18.2098ZM13.1903 14.7098C13.1403 14.7498 13.0903 14.7898 13.0403 14.8298C12.9803 14.8698 12.9203 14.8998 12.8603 14.9198C12.8003 14.9498 12.7403 14.9698 12.6803 14.9798C12.6103 14.9898 12.5503 14.9998 12.4803 14.9998C12.2203 14.9998 11.9603 14.8898 11.7703 14.7098C11.5903 14.5198 11.4803 14.2598 11.4803 13.9998C11.4803 13.7398 11.5903 13.4798 11.7703 13.2898C11.8603 13.1998 11.9703 13.1298 12.1003 13.0798C12.4703 12.9198 12.9103 13.0098 13.1903 13.2898C13.3703 13.4798 13.4803 13.7398 13.4803 13.9998C13.4803 14.2598 13.3703 14.5198 13.1903 14.7098ZM16.6903 18.2098C16.5003 18.3898 16.2403 18.4998 15.9803 18.4998C15.7203 18.4998 15.4603 18.3898 15.2703 18.2098C15.0903 18.0198 14.9803 17.7598 14.9803 17.4998C14.9803 17.2398 15.0903 16.9798 15.2703 16.7898C15.6403 16.4198 16.3203 16.4198 16.6903 16.7898C16.8703 16.9798 16.9803 17.2398 16.9803 17.4998C16.9803 17.7598 16.8703 18.0198 16.6903 18.2098ZM16.6903 14.7098C16.6403 14.7498 16.5903 14.7898 16.5403 14.8298C16.4803 14.8698 16.4203 14.8998 16.3603 14.9198C16.3003 14.9498 16.2403 14.9698 16.1803 14.9798C16.1103 14.9898 16.0403 14.9998 15.9803 14.9998C15.7203 14.9998 15.4603 14.8898 15.2703 14.7098C15.0903 14.5198 14.9803 14.2598 14.9803 13.9998C14.9803 13.7398 15.0903 13.4798 15.2703 13.2898C15.3703 13.1998 15.4703 13.1298 15.6003 13.0798C15.7803 12.9998 15.9803 12.9798 16.1803 13.0198C16.2403 13.0298 16.3003 13.0498 16.3603 13.0798C16.4203 13.0998 16.4803 13.1298 16.5403 13.1698C16.5903 13.2098 16.6403 13.2498 16.6903 13.2898C16.8703 13.4798 16.9803 13.7398 16.9803 13.9998C16.9803 14.2598 16.8703 14.5198 16.6903 14.7098Z" fill="#4B5563"/>
</svg>
