<svg width="55" height="56" viewBox="0 0 55 56" fill="none" xmlns="http://www.w3.org/2000/svg">
<rect y="0.5" width="55" height="55" rx="27.5" fill="#FDE8E8"/>
<path d="M32.9853 29.748C32.9634 29.6866 32.9373 29.6267 32.9073 29.5688L32.911 29.577C32.8015 29.3213 31.921 27.6202 31.774 27.3885L27.6858 19.5L23.4933 27.582C23.3508 27.8145 22.5693 29.322 22.4613 29.577L22.4185 29.6715C22.1397 30.3511 21.9975 31.0789 22 31.8135C22 33.3217 22.5991 34.768 23.6656 35.8345C24.732 36.9009 26.1784 37.5 27.6865 37.5C29.1947 37.5 30.6411 36.9009 31.7075 35.8345C32.7739 34.768 33.373 33.3217 33.373 31.8135V31.809L33.3738 31.7332C33.3738 31.017 33.2313 30.3338 32.9725 29.7113L32.9853 29.7465V29.748ZM27.6888 36.0142C26.9613 36.0144 26.2464 35.8251 25.6143 35.465C24.9823 35.1049 24.4549 34.5864 24.0841 33.9606C23.7133 33.3347 23.5119 32.6231 23.4997 31.8958C23.4875 31.1684 23.6649 30.4504 24.0145 29.8125L24.0033 29.8343C23.9483 30.1263 23.9207 30.4228 23.9208 30.72V30.7208C23.9216 32.0524 24.4509 33.3293 25.3926 34.271C26.3342 35.2126 27.6111 35.742 28.9428 35.7428C29.0275 35.7428 29.1183 35.7427 29.2023 35.7382C28.7229 35.9225 28.2136 36.016 27.7 36.0142H27.6828H27.6888Z" fill="#C31B1B"/>
</svg>
