<svg width="60" height="60" viewBox="0 0 60 60" fill="none" xmlns="http://www.w3.org/2000/svg">
<rect width="60" height="60" rx="30" fill="#F3F4F6"/>
<path d="M39.679 28.8695V33.5692C39.679 36.8591 37.799 38.269 34.9792 38.269H25.5797C22.7598 38.269 20.8799 36.8591 20.8799 33.5692V26.9896C20.8799 23.6997 22.7598 22.2898 25.5797 22.2898H32.1593" stroke="#1C2A3A" stroke-width="1.40993" stroke-miterlimit="10" stroke-linecap="round" stroke-linejoin="round"/>
<path d="M25.5796 27.4595L28.5216 29.8094C29.4898 30.5801 31.0783 30.5801 32.0465 29.8094L33.1556 28.9258" stroke="#1C2A3A" stroke-width="1.40993" stroke-miterlimit="10" stroke-linecap="round" stroke-linejoin="round"/>
<path d="M37.3291 26.5196C38.6269 26.5196 39.679 25.4675 39.679 24.1697C39.679 22.8719 38.6269 21.8198 37.3291 21.8198C36.0313 21.8198 34.9792 22.8719 34.9792 24.1697C34.9792 25.4675 36.0313 26.5196 37.3291 26.5196Z" stroke="#1C2A3A" stroke-width="1.40993" stroke-miterlimit="10" stroke-linecap="round" stroke-linejoin="round"/>
</svg>
