<svg width="49" height="48" viewBox="0 0 49 48" fill="none" xmlns="http://www.w3.org/2000/svg">
<rect x="0.480347" width="48" height="48" rx="24" fill="#F3F4F6"/>
<path d="M29.2303 15.56V14C29.2303 13.59 28.8903 13.25 28.4803 13.25C28.0703 13.25 27.7303 13.59 27.7303 14V15.5H21.2303V14C21.2303 13.59 20.8903 13.25 20.4803 13.25C20.0703 13.25 19.7303 13.59 19.7303 14V15.56C17.0303 15.81 15.7203 17.42 15.5203 19.81C15.5003 20.1 15.7403 20.34 16.0203 20.34H32.9403C33.2303 20.34 33.4703 20.09 33.4403 19.81C33.2403 17.42 31.9303 15.81 29.2303 15.56Z" fill="#4B5563"/>
<path d="M32.4803 21.8398H16.4803C15.9303 21.8398 15.4803 22.2898 15.4803 22.8398V28.9998C15.4803 31.9998 16.9803 33.9998 20.4803 33.9998H28.4803C31.9803 33.9998 33.4803 31.9998 33.4803 28.9998V22.8398C33.4803 22.2898 33.0303 21.8398 32.4803 21.8398ZM21.6903 30.2098C21.6403 30.2498 21.5903 30.2998 21.5403 30.3298C21.4803 30.3698 21.4203 30.3998 21.3603 30.4198C21.3003 30.4498 21.2403 30.4698 21.1803 30.4798C21.1103 30.4898 21.0503 30.4998 20.9803 30.4998C20.8503 30.4998 20.7203 30.4698 20.6003 30.4198C20.4703 30.3698 20.3703 30.2998 20.2703 30.2098C20.0903 30.0198 19.9803 29.7598 19.9803 29.4998C19.9803 29.2398 20.0903 28.9798 20.2703 28.7898C20.3703 28.6998 20.4703 28.6298 20.6003 28.5798C20.7803 28.4998 20.9803 28.4798 21.1803 28.5198C21.2403 28.5298 21.3003 28.5498 21.3603 28.5798C21.4203 28.5998 21.4803 28.6298 21.5403 28.6698C21.5903 28.7098 21.6403 28.7498 21.6903 28.7898C21.8703 28.9798 21.9803 29.2398 21.9803 29.4998C21.9803 29.7598 21.8703 30.0198 21.6903 30.2098ZM21.6903 26.7098C21.5003 26.8898 21.2403 26.9998 20.9803 26.9998C20.7203 26.9998 20.4603 26.8898 20.2703 26.7098C20.0903 26.5198 19.9803 26.2598 19.9803 25.9998C19.9803 25.7398 20.0903 25.4798 20.2703 25.2898C20.5503 25.0098 20.9903 24.9198 21.3603 25.0798C21.4903 25.1298 21.6003 25.1998 21.6903 25.2898C21.8703 25.4798 21.9803 25.7398 21.9803 25.9998C21.9803 26.2598 21.8703 26.5198 21.6903 26.7098ZM25.1903 30.2098C25.0003 30.3898 24.7403 30.4998 24.4803 30.4998C24.2203 30.4998 23.9603 30.3898 23.7703 30.2098C23.5903 30.0198 23.4803 29.7598 23.4803 29.4998C23.4803 29.2398 23.5903 28.9798 23.7703 28.7898C24.1403 28.4198 24.8203 28.4198 25.1903 28.7898C25.3703 28.9798 25.4803 29.2398 25.4803 29.4998C25.4803 29.7598 25.3703 30.0198 25.1903 30.2098ZM25.1903 26.7098C25.1403 26.7498 25.0903 26.7898 25.0403 26.8298C24.9803 26.8698 24.9203 26.8998 24.8603 26.9198C24.8003 26.9498 24.7403 26.9698 24.6803 26.9798C24.6103 26.9898 24.5503 26.9998 24.4803 26.9998C24.2203 26.9998 23.9603 26.8898 23.7703 26.7098C23.5903 26.5198 23.4803 26.2598 23.4803 25.9998C23.4803 25.7398 23.5903 25.4798 23.7703 25.2898C23.8603 25.1998 23.9703 25.1298 24.1003 25.0798C24.4703 24.9198 24.9103 25.0098 25.1903 25.2898C25.3703 25.4798 25.4803 25.7398 25.4803 25.9998C25.4803 26.2598 25.3703 26.5198 25.1903 26.7098ZM28.6903 30.2098C28.5003 30.3898 28.2403 30.4998 27.9803 30.4998C27.7203 30.4998 27.4603 30.3898 27.2703 30.2098C27.0903 30.0198 26.9803 29.7598 26.9803 29.4998C26.9803 29.2398 27.0903 28.9798 27.2703 28.7898C27.6403 28.4198 28.3203 28.4198 28.6903 28.7898C28.8703 28.9798 28.9803 29.2398 28.9803 29.4998C28.9803 29.7598 28.8703 30.0198 28.6903 30.2098ZM28.6903 26.7098C28.6403 26.7498 28.5903 26.7898 28.5403 26.8298C28.4803 26.8698 28.4203 26.8998 28.3603 26.9198C28.3003 26.9498 28.2403 26.9698 28.1803 26.9798C28.1103 26.9898 28.0403 26.9998 27.9803 26.9998C27.7203 26.9998 27.4603 26.8898 27.2703 26.7098C27.0903 26.5198 26.9803 26.2598 26.9803 25.9998C26.9803 25.7398 27.0903 25.4798 27.2703 25.2898C27.3703 25.1998 27.4703 25.1298 27.6003 25.0798C27.7803 24.9998 27.9803 24.9798 28.1803 25.0198C28.2403 25.0298 28.3003 25.0498 28.3603 25.0798C28.4203 25.0998 28.4803 25.1298 28.5403 25.1698C28.5903 25.2098 28.6403 25.2498 28.6903 25.2898C28.8703 25.4798 28.9803 25.7398 28.9803 25.9998C28.9803 26.2598 28.8703 26.5198 28.6903 26.7098Z" fill="#4B5563"/>
</svg>
