<svg width="60" height="60" viewBox="0 0 60 60" fill="none" xmlns="http://www.w3.org/2000/svg">
<rect width="60" height="60" rx="30" fill="#DEF7E5"/>
<path d="M26 20V23" stroke="#014737" stroke-width="1.5" stroke-miterlimit="10" stroke-linecap="round" stroke-linejoin="round"/>
<path d="M34 20V23" stroke="#014737" stroke-width="1.5" stroke-miterlimit="10" stroke-linecap="round" stroke-linejoin="round"/>
<path d="M21.5 27.0901H38.5" stroke="#014737" stroke-width="1.5" stroke-miterlimit="10" stroke-linecap="round" stroke-linejoin="round"/>
<path d="M40 37C40 37.75 39.79 38.46 39.42 39.06C38.73 40.22 37.46 41 36 41C34.99 41 34.07 40.63 33.37 40C33.06 39.74 32.79 39.42 32.58 39.06C32.21 38.46 32 37.75 32 37C32 34.79 33.79 33 36 33C37.2 33 38.27 33.53 39 34.36C39.62 35.07 40 35.99 40 37Z" stroke="#014737" stroke-width="1.5" stroke-miterlimit="10" stroke-linecap="round" stroke-linejoin="round"/>
<path d="M34.4399 37L35.4299 37.99L37.5599 36.02" stroke="#014737" stroke-width="1.5" stroke-linecap="round" stroke-linejoin="round"/>
<path d="M39 26.5V34.36C38.27 33.53 37.2 33 36 33C33.79 33 32 34.79 32 37C32 37.75 32.21 38.46 32.58 39.06C32.79 39.42 33.06 39.74 33.37 40H26C22.5 40 21 38 21 35V26.5C21 23.5 22.5 21.5 26 21.5H34C37.5 21.5 39 23.5 39 26.5Z" stroke="#014737" stroke-width="1.5" stroke-miterlimit="10" stroke-linecap="round" stroke-linejoin="round"/>
<path d="M29.9955 31.7H30.0045" stroke="#014737" stroke-width="2" stroke-linecap="round" stroke-linejoin="round"/>
<path d="M26.2943 31.7H26.3033" stroke="#014737" stroke-width="2" stroke-linecap="round" stroke-linejoin="round"/>
<path d="M26.2943 34.7H26.3033" stroke="#014737" stroke-width="2" stroke-linecap="round" stroke-linejoin="round"/>
</svg>
