<svg width="13" height="12" viewBox="0 0 13 12" fill="none" xmlns="http://www.w3.org/2000/svg">
<path fill-rule="evenodd" clip-rule="evenodd" d="M9.9375 4.67081C9.67134 4.67081 9.45276 4.46205 9.45276 4.20482C9.45276 3.9476 9.66555 3.73883 9.93171 3.73883H9.9375C10.2037 3.73883 10.4197 3.9476 10.4197 4.20482C10.4197 4.46205 10.2037 4.67081 9.9375 4.67081ZM6.77384 8.79886C5.39291 8.79886 4.26978 7.7128 4.26978 6.3782C4.26978 5.04423 5.39291 3.95878 6.77384 3.95878C8.15476 3.95878 9.27789 5.04423 9.27789 6.3782C9.27789 7.7128 8.15476 8.79886 6.77384 8.79886ZM10.3862 2.10849C10.2776 2.07556 10.1194 2.00659 9.98636 1.86555C9.93107 1.80715 9.85649 1.66114 9.78449 1.52072C9.59034 1.1411 9.32482 0.621672 8.79058 0.40421C8.10398 0.125859 5.46813 0.124616 4.75902 0.402967C4.23185 0.612352 3.96313 1.13426 3.76705 1.51513C3.69311 1.65803 3.61725 1.80591 3.56068 1.86555C3.42824 2.00722 3.27009 2.07556 3.17173 2.10601C1.05212 2.67265 0.663818 4.00414 0.663818 6.42107C0.663818 9.91538 1.54586 11.4743 6.77384 11.4743C12.0012 11.4743 12.8832 9.91538 12.8832 6.42107C12.8832 4.00414 12.4956 2.67265 10.3862 2.10849Z" fill="#63C48C"/>
<path fill-rule="evenodd" clip-rule="evenodd" d="M6.77392 4.89045C5.92467 4.89045 5.2342 5.55775 5.2342 6.37851C5.2342 7.19927 5.92467 7.86657 6.77392 7.86657C7.62318 7.86657 8.31364 7.19927 8.31364 6.37851C8.31364 5.55775 7.62318 4.89045 6.77392 4.89045Z" fill="#63C48C"/>
</svg>
