<svg width="18" height="18" viewBox="0 0 18 18" fill="none" xmlns="http://www.w3.org/2000/svg">
<path d="M6.17589 17.1805C6.9046 17.1805 7.49533 16.5898 7.49533 15.8611C7.49533 15.1324 6.9046 14.5416 6.17589 14.5416C5.44718 14.5416 4.85645 15.1324 4.85645 15.8611C4.85645 16.5898 5.44718 17.1805 6.17589 17.1805Z" fill="#8D8D8D"/>
<path d="M13.0372 17.1805C13.7659 17.1805 14.3567 16.5898 14.3567 15.8611C14.3567 15.1324 13.7659 14.5416 13.0372 14.5416C12.3085 14.5416 11.7178 15.1324 11.7178 15.8611C11.7178 16.5898 12.3085 17.1805 13.0372 17.1805Z" fill="#8D8D8D"/>
<path d="M14.8845 7.41649C13.8347 7.41649 12.8279 6.99945 12.0856 6.25712C11.3432 5.51479 10.9262 4.50797 10.9262 3.45816H3.91203L3.67453 2.70343C3.64844 2.6224 3.60314 2.54888 3.54248 2.48914C3.48183 2.4294 3.40762 2.38523 3.3262 2.36038L1.16231 1.69538C1.09577 1.67493 1.02586 1.66779 0.956562 1.67437C0.887266 1.68094 0.819943 1.7011 0.758437 1.73369C0.634221 1.79951 0.541238 1.91198 0.499946 2.04635C0.458653 2.18073 0.472432 2.326 0.538252 2.45022C0.604072 2.57444 0.716542 2.66742 0.850918 2.70871L2.74564 3.28927L5.16286 10.9262L4.30258 11.6334L4.23397 11.702C4.02123 11.9484 3.90069 12.261 3.89299 12.5864C3.88529 12.9118 3.9909 13.2298 4.19175 13.4859C4.3356 13.6609 4.5184 13.7997 4.72551 13.8914C4.93263 13.983 5.15832 14.0249 5.38453 14.0137H14.1931C14.3331 14.0137 14.4674 13.9581 14.5663 13.8591C14.6653 13.7602 14.7209 13.6259 14.7209 13.4859C14.7209 13.346 14.6653 13.2117 14.5663 13.1127C14.4674 13.0138 14.3331 12.9582 14.1931 12.9582H5.30008C5.23931 12.9561 5.1801 12.9384 5.12817 12.9067C5.07623 12.8751 5.03334 12.8306 5.00363 12.7775C4.97392 12.7245 4.95839 12.6646 4.95855 12.6038C4.9587 12.543 4.97454 12.4833 5.00453 12.4304L6.27647 11.3748H14.4201C14.5406 11.3783 14.6588 11.3404 14.7548 11.2675C14.8508 11.1945 14.919 11.0908 14.9479 10.9737L15.8504 7.27927C15.5353 7.36471 15.2109 7.4108 14.8845 7.41649Z" fill="#8D8D8D"/>
<path d="M14.885 6.09724C16.3424 6.09724 17.5239 4.91577 17.5239 3.45835C17.5239 2.00093 16.3424 0.819458 14.885 0.819458C13.4276 0.819458 12.2461 2.00093 12.2461 3.45835C12.2461 4.91577 13.4276 6.09724 14.885 6.09724Z" fill="#FF5656"/>
</svg>
