<svg width="22" height="23" viewBox="0 0 22 23" fill="none" xmlns="http://www.w3.org/2000/svg">
<path d="M1.15768 0.986328C0.914564 0.986328 0.681407 1.08291 0.509498 1.25481C0.33759 1.42672 0.241013 1.65988 0.241013 1.90299C0.241013 2.14611 0.33759 2.37927 0.509498 2.55118C0.681407 2.72308 0.914564 2.81966 1.15768 2.81966H1.60868C1.80773 2.82001 2.00125 2.88513 2.16001 3.00519C2.31877 3.12526 2.43414 3.29373 2.48868 3.48516L5.39635 13.6602C5.5608 14.2344 5.90774 14.7394 6.3847 15.099C6.86166 15.4585 7.44272 15.653 8.04001 15.653H16.4165C16.9662 15.6531 17.5034 15.4884 17.9586 15.1803C18.4138 14.8721 18.7662 14.4346 18.9703 13.9242L21.6727 7.16649C21.7838 6.88843 21.8251 6.58738 21.7929 6.28967C21.7608 5.99196 21.6563 5.70664 21.4884 5.45867C21.3206 5.2107 21.0945 5.00761 20.8301 4.86716C20.5656 4.72672 20.2708 4.65318 19.9713 4.65299H4.72901L4.25051 2.98099C4.08648 2.40675 3.73996 1.9015 3.26334 1.54164C2.78672 1.18177 2.2059 0.986849 1.60868 0.986328H1.15768ZM8.49101 22.9863C8.85215 22.9863 9.20975 22.9152 9.54339 22.777C9.87704 22.6388 10.1802 22.4362 10.4356 22.1809C10.6909 21.9255 10.8935 21.6224 11.0317 21.2887C11.1699 20.9551 11.241 20.5975 11.241 20.2363C11.241 19.8752 11.1699 19.5176 11.0317 19.1839C10.8935 18.8503 10.6909 18.5471 10.4356 18.2918C10.1802 18.0364 9.87704 17.8339 9.54339 17.6957C9.20975 17.5575 8.85215 17.4863 8.49101 17.4863C7.76167 17.4863 7.06219 17.7761 6.54647 18.2918C6.03074 18.8075 5.74101 19.507 5.74101 20.2363C5.74101 20.9657 6.03074 21.6651 6.54647 22.1809C7.06219 22.6966 7.76167 22.9863 8.49101 22.9863ZM15.8243 22.9863C16.1855 22.9863 16.5431 22.9152 16.8767 22.777C17.2104 22.6388 17.5135 22.4362 17.7689 22.1809C18.0243 21.9255 18.2268 21.6224 18.365 21.2887C18.5032 20.9551 18.5743 20.5975 18.5743 20.2363C18.5743 19.8752 18.5032 19.5176 18.365 19.1839C18.2268 18.8503 18.0243 18.5471 17.7689 18.2918C17.5135 18.0364 17.2104 17.8339 16.8767 17.6957C16.5431 17.5575 16.1855 17.4863 15.8243 17.4863C15.095 17.4863 14.3955 17.7761 13.8798 18.2918C13.3641 18.8075 13.0743 19.507 13.0743 20.2363C13.0743 20.9657 13.3641 21.6651 13.8798 22.1809C14.3955 22.6966 15.095 22.9863 15.8243 22.9863Z" fill="#292D32"/>
</svg>
