<svg width="18" height="18" viewBox="0 0 18 18" fill="none" xmlns="http://www.w3.org/2000/svg">
<path d="M0.5 1.25C0.5 1.05109 0.579018 0.860322 0.71967 0.71967C0.860322 0.579018 1.05109 0.5 1.25 0.5H1.808C2.758 0.5 3.328 1.139 3.653 1.733C3.87 2.129 4.027 2.588 4.15 3.004L4.25 3H16.748C17.578 3 18.178 3.794 17.95 4.593L16.122 11.002C15.9581 11.5769 15.6114 12.0827 15.1343 12.4428C14.6572 12.803 14.0758 12.9979 13.478 12.998H7.53C6.92749 12.998 6.34165 12.8002 5.86252 12.4349C5.3834 12.0696 5.0375 11.557 4.878 10.976L4.118 8.204L2.858 3.956L2.857 3.948C2.701 3.381 2.555 2.85 2.337 2.454C2.128 2.069 1.96 2 1.809 2H1.25C1.05109 2 0.860322 1.92098 0.71967 1.78033C0.579018 1.63968 0.5 1.44891 0.5 1.25ZM7 18C7.53043 18 8.03914 17.7893 8.41421 17.4142C8.78929 17.0391 9 16.5304 9 16C9 15.4696 8.78929 14.9609 8.41421 14.5858C8.03914 14.2107 7.53043 14 7 14C6.46957 14 5.96086 14.2107 5.58579 14.5858C5.21071 14.9609 5 15.4696 5 16C5 16.5304 5.21071 17.0391 5.58579 17.4142C5.96086 17.7893 6.46957 18 7 18ZM14 18C14.5304 18 15.0391 17.7893 15.4142 17.4142C15.7893 17.0391 16 16.5304 16 16C16 15.4696 15.7893 14.9609 15.4142 14.5858C15.0391 14.2107 14.5304 14 14 14C13.4696 14 12.9609 14.2107 12.5858 14.5858C12.2107 14.9609 12 15.4696 12 16C12 16.5304 12.2107 17.0391 12.5858 17.4142C12.9609 17.7893 13.4696 18 14 18Z" fill="#015104"/>
</svg>
