<svg width="22" height="23" viewBox="0 0 22 23" fill="none" xmlns="http://www.w3.org/2000/svg">
<path d="M1.37452 0.532227C1.13354 0.532227 0.902435 0.627955 0.732038 0.798352C0.56164 0.96875 0.465912 1.19986 0.465912 1.44084C0.465912 1.68182 0.56164 1.91292 0.732038 2.08332C0.902435 2.25372 1.13354 2.34945 1.37452 2.34945H1.82156C2.01886 2.34979 2.21068 2.41434 2.36805 2.53335C2.52541 2.65235 2.63976 2.81935 2.69382 3.0091L5.57593 13.0947C5.73894 13.6638 6.08283 14.1644 6.5556 14.5208C7.02837 14.8772 7.60432 15.07 8.19637 15.07H16.4992C17.0441 15.0701 17.5765 14.9069 18.0278 14.6014C18.479 14.296 18.8283 13.8623 19.0306 13.3563L21.7092 6.65808C21.8193 6.38245 21.8603 6.08405 21.8284 5.78895C21.7966 5.49386 21.6929 5.21105 21.5266 4.96526C21.3602 4.71947 21.1362 4.51816 20.874 4.37895C20.6119 4.23974 20.3196 4.16685 20.0228 4.16667H4.91447L4.44017 2.50936C4.27758 1.94016 3.93411 1.43936 3.46167 1.08266C2.98924 0.725955 2.41353 0.532743 1.82156 0.532227H1.37452ZM7.3241 12.5931L5.43419 5.98389H20.0228L17.3424 12.6822C17.2749 12.8506 17.1585 12.995 17.0083 13.0967C16.858 13.1984 16.6807 13.2527 16.4992 13.2528H8.19637C7.99907 13.2524 7.80724 13.1879 7.64988 13.0689C7.49251 12.9499 7.37816 12.7829 7.3241 12.5931ZM8.6434 22.3389C9.00136 22.3389 9.35582 22.2684 9.68653 22.1314C10.0172 21.9944 10.3177 21.7936 10.5709 21.5405C10.824 21.2874 11.0248 20.9869 11.1617 20.6562C11.2987 20.3255 11.3692 19.971 11.3692 19.613C11.3692 19.2551 11.2987 18.9006 11.1617 18.5699C11.0248 18.2392 10.824 17.9387 10.5709 17.6856C10.3177 17.4325 10.0172 17.2317 9.68653 17.0947C9.35582 16.9577 9.00136 16.8872 8.6434 16.8872C7.92047 16.8872 7.22714 17.1744 6.71595 17.6856C6.20476 18.1968 5.91757 18.8901 5.91757 19.613C5.91757 20.336 6.20476 21.0293 6.71595 21.5405C7.22714 22.0517 7.92047 22.3389 8.6434 22.3389ZM8.6434 20.5216C8.40242 20.5216 8.17131 20.4259 8.00092 20.2555C7.83052 20.0851 7.73479 19.854 7.73479 19.613C7.73479 19.3721 7.83052 19.1409 8.00092 18.9706C8.17131 18.8002 8.40242 18.7044 8.6434 18.7044C8.88438 18.7044 9.11549 18.8002 9.28588 18.9706C9.45628 19.1409 9.55201 19.3721 9.55201 19.613C9.55201 19.854 9.45628 20.0851 9.28588 20.2555C9.11549 20.4259 8.88438 20.5216 8.6434 20.5216ZM15.9123 22.3389C16.2702 22.3389 16.6247 22.2684 16.9554 22.1314C17.2861 21.9944 17.5866 21.7936 17.8397 21.5405C18.0928 21.2874 18.2936 20.9869 18.4306 20.6562C18.5676 20.3255 18.6381 19.971 18.6381 19.613C18.6381 19.2551 18.5676 18.9006 18.4306 18.5699C18.2936 18.2392 18.0928 17.9387 17.8397 17.6856C17.5866 17.4325 17.2861 17.2317 16.9554 17.0947C16.6247 16.9577 16.2702 16.8872 15.9123 16.8872C15.1893 16.8872 14.496 17.1744 13.9848 17.6856C13.4736 18.1968 13.1865 18.8901 13.1865 19.613C13.1865 20.336 13.4736 21.0293 13.9848 21.5405C14.496 22.0517 15.1893 22.3389 15.9123 22.3389ZM15.9123 20.5216C15.6713 20.5216 15.4402 20.4259 15.2698 20.2555C15.0994 20.0851 15.0037 19.854 15.0037 19.613C15.0037 19.3721 15.0994 19.1409 15.2698 18.9706C15.4402 18.8002 15.6713 18.7044 15.9123 18.7044C16.1533 18.7044 16.3844 18.8002 16.5548 18.9706C16.7252 19.1409 16.8209 19.3721 16.8209 19.613C16.8209 19.854 16.7252 20.0851 16.5548 20.2555C16.3844 20.4259 16.1533 20.5216 15.9123 20.5216Z" fill="#9CA3AF"/>
</svg>
