<svg width="30" height="30" viewBox="0 0 30 30" fill="none" xmlns="http://www.w3.org/2000/svg">
<rect x="0.5" y="0.5" width="29" height="29" rx="14.5" fill="white"/>
<rect x="0.5" y="0.5" width="29" height="29" rx="14.5" stroke="#BABABA"/>
<path d="M12.1762 23.1804C12.9049 23.1804 13.4956 22.5897 13.4956 21.8609C13.4956 21.1322 12.9049 20.5415 12.1762 20.5415C11.4475 20.5415 10.8568 21.1322 10.8568 21.8609C10.8568 22.5897 11.4475 23.1804 12.1762 23.1804Z" fill="#8D8D8D"/>
<path d="M19.0373 23.1804C19.766 23.1804 20.3567 22.5897 20.3567 21.8609C20.3567 21.1322 19.766 20.5415 19.0373 20.5415C18.3086 20.5415 17.7178 21.1322 17.7178 21.8609C17.7178 22.5897 18.3086 23.1804 19.0373 23.1804Z" fill="#8D8D8D"/>
<path d="M20.8845 13.4164C19.8347 13.4164 18.8279 12.9993 18.0856 12.257C17.3432 11.5147 16.9262 10.5079 16.9262 9.45803H9.91203L9.67453 8.70331C9.64844 8.62228 9.60314 8.54875 9.54248 8.48902C9.48183 8.42928 9.40762 8.38511 9.3262 8.36026L7.16231 7.69526C7.09577 7.67481 7.02586 7.66767 6.95656 7.67424C6.88727 7.68082 6.81994 7.70097 6.75844 7.73356C6.63422 7.79938 6.54124 7.91185 6.49995 8.04623C6.45865 8.18061 6.47243 8.32588 6.53825 8.4501C6.60407 8.57432 6.71654 8.6673 6.85092 8.70859L8.74564 9.28915L11.1629 16.9261L10.3026 17.6333L10.234 17.7019C10.0212 17.9483 9.90069 18.2609 9.89299 18.5863C9.88529 18.9117 9.9909 19.2297 10.1918 19.4858C10.3356 19.6607 10.5184 19.7996 10.7255 19.8912C10.9326 19.9829 11.1583 20.0248 11.3845 20.0136H20.1931C20.3331 20.0136 20.4674 19.958 20.5663 19.859C20.6653 19.76 20.7209 19.6258 20.7209 19.4858C20.7209 19.3458 20.6653 19.2116 20.5663 19.1126C20.4674 19.0136 20.3331 18.958 20.1931 18.958H11.3001C11.2393 18.956 11.1801 18.9382 11.1282 18.9066C11.0762 18.875 11.0333 18.8305 11.0036 18.7774C10.9739 18.7243 10.9584 18.6645 10.9585 18.6037C10.9587 18.5429 10.9745 18.4832 11.0045 18.4303L12.2765 17.3747H20.4201C20.5406 17.3782 20.6588 17.3403 20.7548 17.2673C20.8508 17.1944 20.919 17.0907 20.9479 16.9736L21.8504 13.2791C21.5353 13.3646 21.2109 13.4107 20.8845 13.4164Z" fill="#8D8D8D"/>
<path d="M20.8845 12.0971C22.3419 12.0971 23.5234 10.9156 23.5234 9.45822C23.5234 8.00081 22.3419 6.81934 20.8845 6.81934C19.4271 6.81934 18.2456 8.00081 18.2456 9.45822C18.2456 10.9156 19.4271 12.0971 20.8845 12.0971Z" fill="#FF3D3D"/>
</svg>
