<svg width="50" height="48" viewBox="0 0 50 48" fill="none" xmlns="http://www.w3.org/2000/svg">
<rect x="0.111267" y="0.53125" width="49.822" height="46.911" rx="23.4555" fill="#F3F4F6"/>
<path d="M15.1577 12.9863C14.9146 12.9863 14.6814 13.0829 14.5095 13.2548C14.3376 13.4267 14.241 13.6599 14.241 13.903C14.241 14.1461 14.3376 14.3793 14.5095 14.5512C14.6814 14.7231 14.9146 14.8197 15.1577 14.8197H15.6087C15.8077 14.82 16.0013 14.8851 16.16 15.0052C16.3188 15.1253 16.4341 15.2937 16.4887 15.4852L19.3963 25.6602C19.5608 26.2344 19.9077 26.7394 20.3847 27.099C20.8617 27.4585 21.4427 27.653 22.04 27.653H30.4165C30.9662 27.6531 31.5034 27.4884 31.9586 27.1803C32.4138 26.8721 32.7662 26.4346 32.9703 25.9242L35.6727 19.1665C35.7838 18.8884 35.8251 18.5874 35.7929 18.2897C35.7608 17.992 35.6563 17.7066 35.4884 17.4587C35.3206 17.2107 35.0945 17.0076 34.8301 16.8672C34.5656 16.7267 34.2708 16.6532 33.9713 16.653H18.729L18.2505 14.981C18.0865 14.4067 17.74 13.9015 17.2633 13.5416C16.7867 13.1818 16.2059 12.9868 15.6087 12.9863H15.1577ZM22.491 34.9863C22.8521 34.9863 23.2097 34.9152 23.5434 34.777C23.877 34.6388 24.1802 34.4362 24.4356 34.1809C24.6909 33.9255 24.8935 33.6224 25.0317 33.2887C25.1699 32.9551 25.241 32.5975 25.241 32.2363C25.241 31.8752 25.1699 31.5176 25.0317 31.1839C24.8935 30.8503 24.6909 30.5471 24.4356 30.2918C24.1802 30.0364 23.877 29.8339 23.5434 29.6957C23.2097 29.5575 22.8521 29.4863 22.491 29.4863C21.7617 29.4863 21.0622 29.7761 20.5465 30.2918C20.0307 30.8075 19.741 31.507 19.741 32.2363C19.741 32.9657 20.0307 33.6651 20.5465 34.1809C21.0622 34.6966 21.7617 34.9863 22.491 34.9863ZM29.8243 34.9863C30.1855 34.9863 30.5431 34.9152 30.8767 34.777C31.2104 34.6388 31.5135 34.4362 31.7689 34.1809C32.0243 33.9255 32.2268 33.6224 32.365 33.2887C32.5032 32.9551 32.5743 32.5975 32.5743 32.2363C32.5743 31.8752 32.5032 31.5176 32.365 31.1839C32.2268 30.8503 32.0243 30.5471 31.7689 30.2918C31.5135 30.0364 31.2104 29.8339 30.8767 29.6957C30.5431 29.5575 30.1855 29.4863 29.8243 29.4863C29.095 29.4863 28.3955 29.7761 27.8798 30.2918C27.3641 30.8075 27.0743 31.507 27.0743 32.2363C27.0743 32.9657 27.3641 33.6651 27.8798 34.1809C28.3955 34.6966 29.095 34.9863 29.8243 34.9863Z" fill="#292D32"/>
</svg>
