<svg width="14" height="14" viewBox="0 0 14 14" fill="none" xmlns="http://www.w3.org/2000/svg">
<path fill-rule="evenodd" clip-rule="evenodd" d="M11.2496 11.9414C10.3575 12.7998 9.25237 13.4044 8.04839 13.6926C7.36433 13.8745 6.65075 13.9174 5.94982 13.8189C5.24889 13.7203 4.57483 13.4822 3.9675 13.1186L3.82226 13.0296L3.78829 13.0109C3.77848 13.0067 3.76828 13.0036 3.75783 13.0015C3.74616 13.0002 3.73437 13.0002 3.72269 13.0015H3.69575L3.56574 13.0343H3.54934C3.1792 13.1303 2.87817 13.2076 2.63688 13.2533C2.40637 13.3066 2.16775 13.315 1.93409 13.2779C1.61111 13.2121 1.31462 13.0528 1.08156 12.8197C0.848493 12.5867 0.68915 12.2902 0.623377 11.9672C0.586203 11.7336 0.594555 11.4949 0.647974 11.2644C0.693656 11.022 0.770963 10.7221 0.867012 10.352V10.3356C0.88341 10.2723 0.892781 10.2337 0.899809 10.2055C0.906837 10.1774 0.899809 10.1774 0.899809 10.1774C0.90356 10.1555 0.90028 10.133 0.890438 10.113C0.890438 10.113 0.884581 10.1013 0.871697 10.079C0.858812 10.0568 0.826015 10.0029 0.782676 9.93497C0.416995 9.33312 0.175625 8.6641 0.0728217 7.96741C-0.0299815 7.27072 0.00786691 6.5605 0.184131 5.87868C0.477348 4.66372 1.09376 3.5507 1.96806 2.65755C3.19918 1.42627 4.869 0.734485 6.61017 0.734375C8.35135 0.734265 10.0213 1.42584 11.2525 2.65696C12.4838 3.88808 13.1756 5.5579 13.1757 7.29908C13.1758 9.04026 12.4842 10.7102 11.2531 11.9414H11.2496Z" fill="#1C2A3A"/>
<path d="M9.18433 8.33277C9.7536 8.33277 10.2151 7.87128 10.2151 7.302C10.2151 6.73273 9.7536 6.27124 9.18433 6.27124C8.61505 6.27124 8.15356 6.73273 8.15356 7.302C8.15356 7.87128 8.61505 8.33277 9.18433 8.33277Z" fill="#EFF8FF"/>
<path d="M6.60767 8.33277C7.17694 8.33277 7.63843 7.87128 7.63843 7.302C7.63843 6.73273 7.17694 6.27124 6.60767 6.27124C6.03839 6.27124 5.5769 6.73273 5.5769 7.302C5.5769 7.87128 6.03839 8.33277 6.60767 8.33277Z" fill="#EFF8FF"/>
<path d="M4.03052 8.33277C4.59979 8.33277 5.06128 7.87128 5.06128 7.302C5.06128 6.73273 4.59979 6.27124 4.03052 6.27124C3.46124 6.27124 2.99976 6.73273 2.99976 7.302C2.99976 7.87128 3.46124 8.33277 4.03052 8.33277Z" fill="#EFF8FF"/>
</svg>
