<svg width="26" height="26" viewBox="0 0 26 26" fill="none" xmlns="http://www.w3.org/2000/svg">
<path fill-rule="evenodd" clip-rule="evenodd" d="M11.2618 5.1416C8.93572 3.83321 6.87556 4.44826 5.16233 6.52773C3.5097 8.53427 4.63684 12.1516 5.44653 14.7523C5.63957 15.3722 5.81491 15.9347 5.9302 16.4033C6.52809 18.8378 7.10077 20.3553 8.4054 21.4534C9.05155 21.9972 9.78456 21.0625 10.5578 20.077C11.2281 19.2222 11.9284 18.3289 12.6292 18.3267C13.3183 18.3246 14.0078 19.2169 14.669 20.0716C15.432 21.0583 16.157 21.9966 16.7994 21.4534C17.7968 20.6116 18.2488 19.9939 18.7968 18.2597C19.3936 16.3685 20.3583 14.1067 21.1251 11.4996C21.6645 9.6657 21.7289 7.7975 20.1744 5.99526C17.9544 3.4214 14.8781 4.75123 13.4459 5.60221L15.3859 7.2645C15.4394 7.31034 15.4834 7.36627 15.5153 7.4291C15.5472 7.49194 15.5664 7.56044 15.5719 7.63069C15.5773 7.70095 15.5688 7.77159 15.5469 7.83858C15.5251 7.90556 15.4902 7.96759 15.4444 8.0211C15.3985 8.07462 15.3426 8.11859 15.2798 8.15049C15.2169 8.18239 15.1484 8.2016 15.0782 8.20703C15.0079 8.21245 14.9373 8.20399 14.8703 8.18212C14.8033 8.16025 14.7413 8.12539 14.6878 8.07955L11.2618 5.1416Z" fill="#83A8F9"/>
</svg>
