<svg width="25" height="25" viewBox="0 0 25 25" fill="none" xmlns="http://www.w3.org/2000/svg">
<g clip-path="url(#clip0_113_3839)">
<path d="M3.31947 15.1338H1.81606C1.42653 15.1338 1.11133 15.449 1.11133 15.8385V24.2952C1.11133 24.6848 1.42653 25 1.81606 25H3.31947C4.48528 25 5.43365 24.0516 5.43365 22.8858V17.248C5.43365 16.0822 4.48533 15.1338 3.31947 15.1338Z" fill="#4B5563"/>
<path d="M24.9551 16.5007C24.8706 16.3598 24.7579 16.247 24.631 16.1484C24.1121 15.6944 23.2378 15.7373 22.7283 16.2894L19.5288 19.9821L19.4301 20.0948C19.0355 20.5318 18.4717 20.7714 17.8798 20.7714H12.4111C12.0164 20.7714 11.7064 20.4613 11.7064 20.0667C11.7064 19.672 12.0164 19.362 12.4111 19.362H16.7099C17.4851 19.362 18.1194 18.7277 18.1194 17.9525V17.9384C18.1053 17.1632 17.4851 16.5431 16.7099 16.5431H14.1588C13.7362 16.5431 13.2833 16.3879 12.9185 16.0779C11.199 14.5698 8.69014 14.4711 6.84375 15.7538V24.4219C8.23911 24.8025 9.67675 24.9998 11.1284 24.9998H17.4147C18.965 24.9998 20.4309 24.2668 21.3611 23.0265L24.7439 18.5162C25.2373 17.8684 25.2745 16.98 24.9551 16.5007Z" fill="#4B5563"/>
<path d="M20.009 2.30755C19.2274 1.42908 18.1438 0.945312 16.958 0.945312C15.6345 0.945312 14.4871 1.57116 13.6401 2.75515C13.5766 2.84389 13.5171 2.93269 13.4615 3.02055C13.4058 2.93264 13.3464 2.84389 13.2829 2.75515C12.4358 1.57116 11.2885 0.945312 9.96493 0.945312C8.77911 0.945312 7.69556 1.42908 6.91397 2.3075C6.17223 3.14115 5.76367 4.2556 5.76367 5.44561C5.76367 6.73878 6.26548 7.93207 7.34278 9.20105C8.28284 10.3082 9.63117 11.4462 11.1924 12.764C11.7693 13.2509 12.3659 13.7545 12.9999 14.3039C13.1323 14.4187 13.2969 14.4761 13.4615 14.4761C13.626 14.4761 13.7906 14.4187 13.923 14.3039C14.5569 13.7546 15.1534 13.2511 15.7303 12.7642C16.733 11.9179 17.599 11.187 18.3504 10.4781C19.8093 9.10159 21.1593 7.53921 21.1593 5.44565C21.1593 4.25565 20.7508 3.1412 20.009 2.30755Z" fill="#4B5563"/>
</g>
<defs>
<clipPath id="clip0_113_3839">
<rect width="24.0547" height="24.0547" fill="white" transform="translate(0.609375 0.945312)"/>
</clipPath>
</defs>
</svg>
