<svg width="15" height="15" viewBox="0 0 15 15" fill="none" xmlns="http://www.w3.org/2000/svg">
<path d="M7.09964 2.67857L7.5 3.2137L7.90036 2.67857C8.56792 1.78627 9.63741 1.20654 10.83 1.20654C12.854 1.20654 14.5 2.85535 14.5 4.89904C14.5 5.73716 14.3664 6.51029 14.1343 7.22763L14.1332 7.23089C13.5765 8.99259 12.4341 10.4168 11.195 11.4817C9.95375 12.5485 8.64415 13.2298 7.80394 13.5157L7.80393 13.5157L7.79859 13.5175C7.74125 13.5378 7.633 13.5565 7.5 13.5565C7.367 13.5565 7.25875 13.5378 7.20141 13.5175L7.20142 13.5175L7.19606 13.5157C6.35584 13.2298 5.04625 12.5485 3.80496 11.4817C2.56587 10.4168 1.42346 8.99259 0.866762 7.23089L0.866774 7.23088L0.865722 7.22763C0.633641 6.51029 0.5 5.73716 0.5 4.89904C0.5 2.85535 2.14598 1.20654 4.17 1.20654C5.3626 1.20654 6.43208 1.78627 7.09964 2.67857Z" stroke="#1F2A37"/>
</svg>
