<svg width="25" height="26" viewBox="0 0 25 26" fill="none" xmlns="http://www.w3.org/2000/svg">
<path d="M8.36401 7.55066C8.36401 5.24543 10.2391 3.37036 12.5443 3.37036C14.8491 3.37036 16.7238 5.24464 16.7246 7.54921C16.7151 9.81113 14.953 11.635 12.7071 11.7206H12.7071H12.707H12.707H12.7069H12.7069H12.7069H12.7068H12.7068H12.7068H12.7067H12.7067H12.7067H12.7066H12.7066H12.7065H12.7065H12.7065H12.7064H12.7064H12.7064H12.7063H12.7063H12.7062H12.7062H12.7062H12.7061H12.7061H12.7061H12.706H12.706H12.7059H12.7059H12.7059H12.7058H12.7058H12.7057H12.7057H12.7057H12.7056H12.7056H12.7055H12.7055H12.7055H12.7054H12.7054H12.7053H12.7053H12.7053H12.7052H12.7052H12.7051H12.7051H12.7051H12.705H12.705H12.7049H12.7049H12.7048H12.7048H12.7048H12.7047H12.7047H12.7046H12.7046H12.7045H12.7045H12.7045H12.7044H12.7044H12.7043H12.7043H12.7042H12.7042H12.7041H12.7041H12.7041H12.704H12.704H12.7039H12.7039H12.7038H12.7038H12.7037H12.7037H12.7036H12.7036H12.7035H12.7035H12.7035H12.7034H12.7034H12.7033H12.7033H12.7032H12.7032H12.7031H12.7031H12.703H12.703H12.7029H12.7029H12.7028H12.7028H12.7027H12.7027H12.7026H12.7026H12.7025H12.7025H12.7024H12.7024H12.7023H12.7023H12.7022H12.7022H12.7021H12.7021H12.702H12.7019H12.7019H12.7018H12.7018H12.7017H12.7017H12.7016H12.7016H12.7015H12.7015H12.7014H12.7013H12.7013H12.7012H12.7012H12.7011H12.7011H12.701H12.701H12.7009H12.7008H12.7008H12.7007H12.7007H12.7006H12.7005H12.7005H12.7004H12.7004H12.7003H12.7002H12.7002H12.7001H12.7001H12.7H12.6999H12.6998H12.6996H12.6995H12.6994H12.6993H12.6992H12.699H12.6989H12.6988H12.6987H12.6986H12.6984H12.6983H12.6982H12.6981H12.698H12.6979H12.6977H12.6976H12.6975H12.6974H12.6973H12.6972H12.697H12.6969H12.6968H12.6967H12.6966H12.6965H12.6963H12.6962H12.6961H12.696H12.6959H12.6958C12.5932 11.7098 12.4902 11.7111 12.3963 11.7191C10.0999 11.6153 8.36401 9.79277 8.36401 7.55066Z" stroke="#9CA3AF" stroke-width="1.5"/>
<path d="M7.68954 21.2934L7.68748 21.2921C6.53123 20.5212 5.98706 19.5486 5.98706 18.5842C5.98706 17.6194 6.5318 16.6367 7.69738 15.856C9.00806 14.989 10.7652 14.5337 12.5573 14.5337C14.3502 14.5337 16.1017 14.9894 17.4011 15.8557C18.5519 16.6229 19.0925 17.5951 19.1015 18.5665C19.1004 19.5409 18.5553 20.5132 17.3983 21.2939C16.0939 22.1695 14.3382 22.6296 12.5443 22.6296C10.75 22.6296 8.99401 22.1693 7.68954 21.2934Z" stroke="#9CA3AF" stroke-width="1.5"/>
</svg>
