<svg width="24" height="23" viewBox="0 0 24 23" fill="none" xmlns="http://www.w3.org/2000/svg">
<g clip-path="url(#clip0_291_8633)">
<path d="M18.7461 15.3169C19.0526 15.0259 19.2966 14.6755 19.4634 14.2871C19.6302 13.8988 19.7162 13.4805 19.7162 13.0579C19.7162 12.6352 19.6302 12.217 19.4634 11.8286C19.2966 11.4402 19.0526 11.0899 18.7461 10.7988C18.1187 10.2034 17.2867 9.87144 16.4218 9.87144C15.5568 9.87144 14.7249 10.2034 14.0975 10.7988L11.7651 13.1313L9.43262 10.7988C8.80525 10.2034 7.97329 9.87144 7.10834 9.87144C6.24339 9.87144 5.41142 10.2034 4.78405 10.7988C4.47757 11.0899 4.23351 11.4402 4.06674 11.8286C3.89997 12.217 3.81396 12.6352 3.81396 13.0579C3.81396 13.4805 3.89997 13.8988 4.06674 14.2871C4.23351 14.6755 4.47757 15.0259 4.78405 15.3169L11.7651 22.1022L18.7461 15.3169ZM11.7651 7.4225C12.6302 7.4225 13.46 7.07881 14.0718 6.46704C14.6835 5.85527 15.0272 5.02553 15.0272 4.16035C15.0272 3.29517 14.6835 2.46543 14.0718 1.85366C13.46 1.24188 12.6302 0.898193 11.7651 0.898193C10.8999 0.898193 10.0701 1.24188 9.45837 1.85366C8.8466 2.46543 8.50291 3.29517 8.50291 4.16035C8.50291 5.02553 8.8466 5.85527 9.45837 6.46704C10.0701 7.07881 10.8999 7.4225 11.7651 7.4225Z" stroke="#9CA3AF" stroke-width="1.63108" stroke-linecap="round" stroke-linejoin="round"/>
</g>
<defs>
<clipPath id="clip0_291_8633">
<rect width="22.8351" height="22.8351" fill="white" transform="translate(0.347656 0.0825195)"/>
</clipPath>
</defs>
</svg>
