<svg width="22" height="22" viewBox="0 0 22 22" fill="none" xmlns="http://www.w3.org/2000/svg">
<g clip-path="url(#clip0_291_9021)">
<path fill-rule="evenodd" clip-rule="evenodd" d="M7.19446 4.61996C7.19446 3.699 7.56031 2.81575 8.21153 2.16453C8.86275 1.51331 9.746 1.14746 10.667 1.14746C11.5879 1.14746 12.4712 1.51331 13.1224 2.16453C13.7736 2.81575 14.1395 3.699 14.1395 4.61996C14.1395 5.54093 13.7736 6.42417 13.1224 7.07539C12.4712 7.72661 11.5879 8.09246 10.667 8.09246C9.746 8.09246 8.86275 7.72661 8.21153 7.07539C7.56031 6.42417 7.19446 5.54093 7.19446 4.61996ZM3.83596 10.308C4.54283 9.63692 5.48031 9.26281 6.45496 9.26281C7.42962 9.26281 8.36709 9.63692 9.07396 10.308L9.08896 10.323L10.667 11.901L12.2465 10.323L12.2615 10.308C12.9682 9.6378 13.905 9.26423 14.879 9.26423C15.8529 9.26423 16.7897 9.6378 17.4965 10.308C17.8475 10.6409 18.1271 11.0417 18.3184 11.4861C18.5096 11.9305 18.6084 12.4092 18.6089 12.893C18.6093 13.3768 18.5113 13.8556 18.3208 14.3004C18.1304 14.7451 17.8514 15.1464 17.501 15.48L11.189 21.615C11.049 21.751 10.8614 21.8272 10.6662 21.8272C10.471 21.8272 10.2835 21.751 10.1435 21.615L3.83296 15.48C3.48265 15.1465 3.20379 14.7454 3.01334 14.3008C2.82288 13.8563 2.72482 13.3777 2.7251 12.8941C2.72538 12.4104 2.824 11.9319 3.01497 11.4876C3.20593 11.0433 3.48526 10.641 3.83596 10.308Z" fill="#292D32"/>
</g>
<defs>
<clipPath id="clip0_291_9021">
<rect width="21" height="21" fill="white" transform="translate(0.166992 0.987061)"/>
</clipPath>
</defs>
</svg>
