<svg width="27" height="26" viewBox="0 0 27 26" fill="none" xmlns="http://www.w3.org/2000/svg">
<path d="M17.81 4.37207C19.2128 4.37207 20.4003 4.90972 21.3727 5.98502C22.345 7.06033 22.8316 8.35798 22.8323 9.87799C22.8323 10.3241 22.7833 10.7688 22.6854 11.2121C22.5881 11.6554 22.433 12.084 22.2199 12.498H16.6722L14.7525 9.51658H13.7498L11.9513 15.0139L10.2375 12.498H4.13961C3.92655 12.084 3.77141 11.6586 3.67417 11.2218C3.57694 10.7856 3.52832 10.3474 3.52832 9.90695C3.52832 8.36692 4.0102 7.05961 4.97397 5.98502C5.93774 4.91044 7.121 4.37279 8.52376 4.37207C9.25802 4.37207 9.96369 4.52114 10.6408 4.81928C11.3178 5.11742 11.9238 5.54997 12.4585 6.11693L13.1803 6.88051L13.8613 6.15769C14.4054 5.57785 15.0195 5.13529 15.7038 4.83C16.388 4.52471 17.0901 4.37207 17.81 4.37207ZM13.1535 22.1789L5.45443 14.4262C5.32001 14.2918 5.19096 14.1538 5.06728 14.0123C4.94359 13.8707 4.82991 13.7234 4.72624 13.5704H9.66269L11.636 16.5379H12.6334L14.4104 11.0126L16.1177 13.5704H21.629C21.5261 13.7191 21.4127 13.8643 21.289 14.0058C21.1654 14.1474 21.0381 14.2854 20.9073 14.4198L13.1535 22.1789Z" fill="#7D53C1"/>
</svg>
