<svg width="21" height="21" viewBox="0 0 21 21" fill="none" xmlns="http://www.w3.org/2000/svg">
<path d="M19.2199 6.44508L12.6699 1.20508C11.3899 0.185077 9.38985 0.175077 8.11985 1.19508L1.56986 6.44508C0.629856 7.19508 0.0598555 8.69508 0.259855 9.87508L1.51986 17.4151C1.80986 19.1051 3.37986 20.4351 5.08986 20.4351H15.6899C17.3799 20.4351 18.9799 19.0751 19.2699 17.4051L20.5299 9.86508C20.7099 8.69508 20.1399 7.19508 19.2199 6.44508ZM11.1399 16.4351C11.1399 16.8451 10.7999 17.1851 10.3899 17.1851C9.97986 17.1851 9.63986 16.8451 9.63986 16.4351V13.4351C9.63986 13.0251 9.97986 12.6851 10.3899 12.6851C10.7999 12.6851 11.1399 13.0251 11.1399 13.4351V16.4351Z" fill="#292D32"/>
</svg>
