<svg width="15" height="16" viewBox="0 0 15 16" fill="none" xmlns="http://www.w3.org/2000/svg">
<path d="M13.3106 13.4094H1.24165C0.994235 13.4094 0.789062 13.6146 0.789062 13.862C0.789062 14.1094 0.994235 14.3146 1.24165 14.3146H13.3106C13.558 14.3146 13.7632 14.1094 13.7632 13.862C13.7632 13.6146 13.558 13.4094 13.3106 13.4094Z" fill="#9CA3AF"/>
<path d="M10.294 1.79297H4.2595C2.44915 1.79297 1.8457 2.87314 1.8457 4.20676V13.8619H5.46639V10.205C5.46639 9.89124 5.71984 9.6378 6.03363 9.6378H8.52588C8.83363 9.6378 9.09312 9.89124 9.09312 10.205V13.8619H12.7138V4.20676C12.7078 2.87314 12.1043 1.79297 10.294 1.79297ZM8.78536 6.16797H7.72932V7.224C7.72932 7.47142 7.52415 7.67659 7.27674 7.67659C7.02932 7.67659 6.82415 7.47142 6.82415 7.224V6.16797H5.76812C5.5207 6.16797 5.31553 5.9628 5.31553 5.71538C5.31553 5.46797 5.5207 5.2628 5.76812 5.2628H6.82415V4.20676C6.82415 3.95935 7.02932 3.75418 7.27674 3.75418C7.52415 3.75418 7.72932 3.95935 7.72932 4.20676V5.2628H8.78536C9.03277 5.2628 9.23794 5.46797 9.23794 5.71538C9.23794 5.9628 9.03277 6.16797 8.78536 6.16797Z" fill="#9CA3AF"/>
</svg>
