<svg width="57" height="18" viewBox="0 0 57 18" fill="none" xmlns="http://www.w3.org/2000/svg">
<g clip-path="url(#clip0_291_4288)">
<path d="M28.9455 0.231065C33.0606 -0.00453663 37.4288 3.90562 37.4544 8.47794C37.4784 12.8271 33.4665 17.1638 28.8124 17.1332C25.0411 17.1084 20.0976 13.8406 20.2687 8.37048C20.406 4.00317 24.2847 -0.0103233 28.9455 0.231065ZM28.9455 14.5755C32.4175 14.5755 35.0141 11.9417 34.9959 8.44074C34.9785 5.23656 32.1753 2.72513 29.0835 2.60113C25.3032 2.45068 22.6917 5.72347 22.7347 8.65485C22.7802 11.4829 25.2329 14.8243 28.9496 14.5755H28.9455Z" fill="#ACA1CD"/>
<path d="M9.50334 16.543C6.3843 16.6257 3.96464 15.2476 2.07569 12.8742C1.38542 12.0079 0.783604 11.0622 0.587683 9.92633C0.461202 9.19968 0.770377 8.46477 1.33665 8.21015C1.97318 7.92413 2.69817 8.15725 3.1793 8.76981C3.4645 9.13272 3.48186 9.59648 3.68109 9.97841C4.45733 11.4664 5.58243 12.7345 7.13988 13.2611C10.1911 14.2928 13.3862 13.4529 15.1065 10.2694C15.2933 9.92467 15.4149 9.54523 15.5695 9.18397C15.9357 8.32754 16.7747 7.92661 17.5411 8.24074C18.2702 8.53834 18.6157 9.39395 18.276 10.2355C16.988 13.4231 14.7494 15.5708 11.37 16.4306C11.0523 16.4974 10.729 16.5339 10.4044 16.5397C10.1043 16.5538 9.80342 16.543 9.50334 16.543Z" fill="#F3A877"/>
<path d="M47.1625 9.45815C43.5912 9.25148 40.7971 7.71635 39.0065 4.54937C38.6469 3.91449 38.3402 3.23166 38.3534 2.45128C38.3634 1.83458 38.6114 1.39066 39.2 1.25344C39.7885 1.11621 40.44 1.0385 40.8219 1.68C41.0947 2.13384 41.2848 2.63563 41.527 3.10766C43.0977 6.17709 46.7351 7.50638 49.8764 6.06384C51.4777 5.3281 52.7045 4.141 53.26 2.38515C53.5906 1.35181 54.2173 0.972365 55.1448 1.22781C55.8185 1.41133 56.179 2.14293 55.9384 3.06302C55.3878 5.16938 53.9792 6.67392 52.2671 7.88003C50.7667 8.93569 49.0704 9.54164 47.1625 9.45815Z" fill="#4D9B91"/>
<path d="M14.8654 1.62154C15.6986 1.62154 16.5319 1.60335 17.3644 1.6265C18.2977 1.65295 18.7945 2.11754 18.8408 2.94917C18.883 3.70392 18.2762 4.49009 17.4677 4.51489C15.6656 4.5711 13.8593 4.55705 12.0555 4.52729C11.4454 4.51737 10.8114 3.70062 10.8155 3.05664C10.812 2.69173 10.9505 2.33976 11.2018 2.07517C11.4531 1.81058 11.7975 1.65412 12.1621 1.6389C13.0624 1.59591 13.9659 1.62898 14.8678 1.62898L14.8654 1.62154Z" fill="#F3A877"/>
<path d="M48.5498 14.0373C48.5498 14.6862 48.5696 15.336 48.5448 15.9841C48.5403 16.3369 48.3977 16.6739 48.1477 16.9228C47.8977 17.1718 47.5601 17.3129 47.2072 17.3159C46.6286 17.3374 45.911 16.786 45.8465 16.1519C45.6853 14.7009 45.6903 13.2362 45.8614 11.7863C45.9507 11.0762 46.6129 10.619 47.3089 10.6727C47.6361 10.6955 47.9432 10.8391 48.1705 11.0756C48.3978 11.3121 48.5291 11.6246 48.539 11.9524C48.5713 12.646 48.5465 13.3429 48.5465 14.0373H48.5498Z" fill="#4D9B91"/>
</g>
<defs>
<clipPath id="clip0_291_4288">
<rect width="55.4573" height="17.0956" fill="white" transform="translate(0.558838 0.220215)"/>
</clipPath>
</defs>
</svg>
