<svg width="18" height="18" viewBox="0 0 18 18" fill="none" xmlns="http://www.w3.org/2000/svg">
<path d="M9.05898 17.6409C13.6579 17.6409 17.386 13.9128 17.386 9.31386C17.386 4.71496 13.6579 0.986816 9.05898 0.986816C4.46008 0.986816 0.731934 4.71496 0.731934 9.31386C0.731934 13.9128 4.46008 17.6409 9.05898 17.6409Z" fill="url(#paint0_linear_291_7631)"/>
<path d="M6.78479 13.8697C6.82051 14.1658 6.7105 14.3237 6.44826 14.3529H4.87952C4.74874 14.3286 4.62622 14.2715 4.52349 14.187C4.42075 14.1025 4.34115 13.9934 4.29205 13.8697C3.67004 12.4334 3.35528 10.8828 3.36805 9.31755C3.36805 9.07003 3.37532 8.82532 3.38974 8.58344C3.44049 8.20746 3.60118 8.00537 3.88128 7.96777H5.82418C5.89983 7.97212 5.9738 7.99165 6.04173 8.02523C6.10966 8.05881 6.17018 8.10574 6.21958 8.16321C6.26897 8.22067 6.30628 8.28749 6.32927 8.3597C6.35226 8.4319 6.36044 8.508 6.35337 8.58344C6.34647 8.82532 6.34304 9.07003 6.34304 9.31755C6.33309 10.8461 6.48173 12.3715 6.78479 13.8697Z" fill="url(#paint1_linear_291_7631)"/>
<path d="M15.2345 9.90784C15.2114 10.1317 15.1165 10.342 14.964 10.5075C14.8116 10.673 14.6097 10.7848 14.3885 10.8262H14.2775C14.5905 10.8694 14.7193 11.0969 14.6704 11.5208L14.6545 11.6026C14.49 12.1929 14.1845 12.5078 13.7192 12.566H13.3555C13.6459 12.6027 13.7455 12.7954 13.6609 13.1526L13.613 13.2964C13.5507 13.4988 13.4322 13.6793 13.2713 13.8169C13.1104 13.9545 12.9137 14.0436 12.7041 14.0737H8.48464C8.20266 14.0653 8.19507 14.0587 7.59632 13.7363C7.48977 13.6794 7.39806 13.5983 7.32852 13.4996C7.25898 13.4008 7.21364 13.2871 7.19599 13.1676C7.03385 11.891 6.95437 10.6053 6.95814 9.31851C6.95814 9.27151 6.95814 9.22481 6.95814 9.17844C6.9602 9.03625 6.99741 8.8968 7.06645 8.77249C7.1355 8.64817 7.23426 8.54286 7.35388 8.46596C7.51367 8.32215 7.51363 8.32215 9.00533 5.6837C9.22 5.29881 9.35446 4.8744 9.4005 4.4361C9.44654 3.9978 9.40325 3.5547 9.27325 3.1336C9.27795 2.99919 9.29577 2.94563 9.4612 2.90991C11.14 3.37989 11.0649 4.62907 10.9652 6.20537C10.961 6.28174 10.9721 6.35819 10.9978 6.43023C11.0235 6.50228 11.0632 6.56849 11.1147 6.62501C11.1663 6.68153 11.2285 6.72722 11.2978 6.75942C11.3672 6.79163 11.4424 6.8097 11.5188 6.81258H14.3499C15.1743 6.92443 15.2222 8.19244 14.7363 8.57594C14.6656 8.62503 14.5904 8.66721 14.5116 8.70189H14.6056C15.4055 8.81751 15.2335 9.89845 15.2316 9.90879" fill="url(#paint2_linear_291_7631)"/>
<path style="mix-blend-mode:screen" opacity="0.9" d="M3.64868 11.9843C3.17819 11.3888 2.83678 10.7019 2.64619 9.96731C2.45561 9.23271 2.42001 8.46647 2.54166 7.71736C2.66332 6.96826 2.93962 6.25266 3.35288 5.61612C3.76614 4.97958 4.30728 4.43604 4.94203 4.02005C6.24952 3.15087 7.81071 2.74509 9.37595 2.8676C10.9412 2.99012 12.4202 3.63385 13.5765 4.69588C11.7416 5.31656 10.0017 6.18902 8.40674 7.28826C6.5558 8.56027 4.94487 10.1502 3.64868 11.9843Z" fill="url(#paint3_radial_291_7631)"/>
<path style="mix-blend-mode:screen" opacity="0.6" d="M16.2081 5.78427C15.1262 4.02883 13.4101 2.75718 11.4157 2.23299C9.42137 1.70881 7.30178 1.97231 5.49649 2.96888C3.69121 3.96545 2.33877 5.61862 1.71958 7.58555C1.1004 9.55248 1.26197 11.6823 2.17086 13.5333C1.60082 12.6084 1.22449 11.5774 1.06465 10.5028C0.9048 9.42823 0.964775 8.33239 1.24094 7.28166C1.51711 6.23093 2.00373 5.24718 2.6713 4.39006C3.33887 3.53293 4.1735 2.82026 5.12462 2.29521C6.07574 1.77016 7.12357 1.44367 8.2046 1.33552C9.28562 1.22737 10.3773 1.33981 11.4136 1.66603C12.4499 1.99225 13.4092 2.52547 14.2333 3.23336C15.0574 3.94125 15.7293 4.80907 16.2081 5.78427Z" fill="url(#paint4_linear_291_7631)"/>
<defs>
<linearGradient id="paint0_linear_291_7631" x1="4.77888" y1="1.7196" x2="13.389" y2="17.0081" gradientUnits="userSpaceOnUse">
<stop stop-color="#00BFFF"/>
<stop offset="0.996" stop-color="#7062ED"/>
</linearGradient>
<linearGradient id="paint1_linear_291_7631" x1="3.39507" y1="5.82876" x2="11.0108" y2="11.9378" gradientUnits="userSpaceOnUse">
<stop stop-color="white"/>
<stop offset="0.198" stop-color="#FCFBFD"/>
<stop offset="0.36" stop-color="#F6F1F8"/>
<stop offset="0.51" stop-color="#EAE0EF"/>
<stop offset="0.653" stop-color="#DAC8E3"/>
<stop offset="0.79" stop-color="#C5A8D4"/>
<stop offset="0.922" stop-color="#AC83C1"/>
<stop offset="1" stop-color="#9B69B5"/>
</linearGradient>
<linearGradient id="paint2_linear_291_7631" x1="8.79848" y1="3.89233" x2="14.8715" y2="13.2412" gradientUnits="userSpaceOnUse">
<stop stop-color="white"/>
<stop offset="0.198" stop-color="#FCFBFD"/>
<stop offset="0.36" stop-color="#F6F1F8"/>
<stop offset="0.51" stop-color="#EAE0EF"/>
<stop offset="0.653" stop-color="#DAC8E3"/>
<stop offset="0.79" stop-color="#C5A8D4"/>
<stop offset="0.922" stop-color="#AC83C1"/>
<stop offset="1" stop-color="#9B69B5"/>
</linearGradient>
<radialGradient id="paint3_radial_291_7631" cx="0" cy="0" r="1" gradientUnits="userSpaceOnUse" gradientTransform="translate(-166.152 -34.6249) scale(9.02104 8.12638)">
<stop stop-color="#9CDEFF"/>
<stop offset="1" stop-color="#4566FE"/>
</radialGradient>
<linearGradient id="paint4_linear_291_7631" x1="13.4818" y1="1.9932" x2="3.3932" y2="13.1611" gradientUnits="userSpaceOnUse">
<stop stop-color="#231F20"/>
<stop offset="0.536" stop-color="white"/>
<stop offset="1" stop-color="#231F20"/>
</linearGradient>
</defs>
</svg>
