<svg width="14" height="13" viewBox="0 0 14 13" fill="none" xmlns="http://www.w3.org/2000/svg">
<path d="M12.2751 4.52047H8.78929L9.55087 2.61914C9.66157 2.34835 9.69025 2.05099 9.63335 1.76404C9.57645 1.47708 9.43647 1.21318 9.23082 1.00512C9.11454 0.889085 8.9744 0.799742 8.82014 0.743288C8.66587 0.686833 8.50117 0.664618 8.33746 0.678185C8.17375 0.691752 8.01496 0.740776 7.87209 0.821855C7.72922 0.902934 7.60571 1.01413 7.51011 1.14772L5.47041 3.99549C5.16672 4.41976 4.829 4.81859 4.46059 5.18805L3.80885 5.83556C3.77898 5.86512 3.75528 5.90033 3.73914 5.93913C3.723 5.97794 3.71474 6.01957 3.71484 6.0616V10.9618C3.71474 11.0038 3.723 11.0454 3.73914 11.0842C3.75528 11.123 3.77898 11.1582 3.80885 11.1878L4.53875 11.9209C4.72475 12.1079 4.94599 12.2562 5.18967 12.3572C5.43335 12.4582 5.69464 12.5099 5.95842 12.5092H9.92692C10.24 12.5087 10.5462 12.4176 10.8087 12.2468C11.0711 12.0761 11.2785 11.833 11.4057 11.5469L13.3504 7.17177C13.475 6.89259 13.5391 6.5902 13.5384 6.28448V5.78802C13.5384 5.45185 13.4048 5.12944 13.1671 4.89173C12.9294 4.65401 12.607 4.52047 12.2708 4.52047H12.2751Z" fill="#F9FAFB"/>
<path d="M1.52946 5.40991C1.37805 5.40991 1.22812 5.4398 1.08828 5.49788C0.948445 5.55595 0.821448 5.64106 0.714577 5.74832C0.607706 5.85558 0.523063 5.98289 0.465504 6.12294C0.407945 6.26299 0.378602 6.41303 0.379158 6.56444V10.8953C0.379158 11.2003 0.500351 11.4929 0.716075 11.7086C0.931799 11.9244 1.22438 12.0456 1.52946 12.0456C1.83454 12.0456 2.12713 11.9244 2.34285 11.7086C2.55858 11.4929 2.67977 11.2003 2.67977 10.8953V6.56444C2.67977 6.25936 2.55858 5.96678 2.34285 5.75105C2.12713 5.53533 1.83454 5.41414 1.52946 5.41414V5.40991Z" fill="#F9FAFB"/>
</svg>
