<svg width="31" height="32" viewBox="0 0 31 32" fill="none" xmlns="http://www.w3.org/2000/svg">
<path d="M15.3614 19.8182C20.106 19.8182 23.9523 16.1143 23.9523 11.5454C23.9523 6.97653 20.106 3.27271 15.3614 3.27271C10.6168 3.27271 6.77051 6.97653 6.77051 11.5454C6.77051 16.1143 10.6168 19.8182 15.3614 19.8182Z" fill="#1C2A3A"/>
<path d="M20.1857 20.5946C20.6057 20.3783 21.0893 20.6965 21.0893 21.1674V27.3401C21.0893 28.4855 20.2875 29.0455 19.2948 28.5746L15.8839 26.9583C15.5911 26.831 15.1329 26.831 14.8402 26.9583L11.4293 28.5746C10.4366 29.0328 9.63477 28.4728 9.63477 27.3274L9.66022 21.1674C9.66022 20.6965 10.1566 20.391 10.5639 20.5946C12.002 21.3201 13.6311 21.7274 15.362 21.7274C17.0929 21.7274 18.7348 21.3201 20.1857 20.5946Z" fill="#1C2A3A"/>
</svg>
