<svg width="21" height="21" viewBox="0 0 21 21" fill="none" xmlns="http://www.w3.org/2000/svg">
<path d="M19.1887 5.91489L16.24 17.7537C16.03 18.6374 15.2425 19.2499 14.3325 19.2499H2.83499C1.51374 19.2499 0.568755 17.9548 0.962505 16.6861L4.64625 4.85617C4.9 4.03367 5.66126 3.46484 6.51876 3.46484H17.2812C18.1125 3.46484 18.8038 3.97235 19.0925 4.67235C19.2588 5.0486 19.2937 5.47739 19.1887 5.91489Z" stroke="#015104" stroke-width="1.3125" stroke-miterlimit="10"/>
<path d="M14 19.25H18.1825C19.3112 19.25 20.195 18.2962 20.1162 17.1675L19.25 5.25" stroke="#015104" stroke-width="1.3125" stroke-miterlimit="10" stroke-linecap="round" stroke-linejoin="round"/>
<path d="M8.46997 5.58269L9.37998 1.80273" stroke="#015104" stroke-width="1.3125" stroke-miterlimit="10" stroke-linecap="round" stroke-linejoin="round"/>
<path d="M14.3325 5.59093L15.155 1.79346" stroke="#015104" stroke-width="1.3125" stroke-miterlimit="10" stroke-linecap="round" stroke-linejoin="round"/>
<path d="M6.73743 10.5H13.7374" stroke="#015104" stroke-width="1.3125" stroke-miterlimit="10" stroke-linecap="round" stroke-linejoin="round"/>
<path d="M5.86243 14H12.8624" stroke="#015104" stroke-width="1.3125" stroke-miterlimit="10" stroke-linecap="round" stroke-linejoin="round"/>
</svg>
