<svg width="41" height="41" viewBox="0 0 41 41" fill="none" xmlns="http://www.w3.org/2000/svg">
<path d="M40.4411 20.7681C40.4411 31.9292 31.3932 40.9771 20.2321 40.9771C9.07095 40.9771 0.0230713 31.9292 0.0230713 20.7681C0.0230713 9.60696 9.07095 0.559082 20.2321 0.559082C31.3932 0.559082 40.4411 9.60696 40.4411 20.7681Z" fill="#F1F4F5"/>
<path d="M29.1615 18.8883V23.588C29.1615 26.8779 27.2816 28.2878 24.4617 28.2878H15.0622C12.2423 28.2878 10.3624 26.8779 10.3624 23.588V17.0084C10.3624 13.7185 12.2423 12.3086 15.0622 12.3086H21.6419" stroke="#9CA3AF" stroke-width="1.40993" stroke-miterlimit="10" stroke-linecap="round" stroke-linejoin="round"/>
<path d="M15.0621 17.478L18.0042 19.8279C18.9723 20.5987 20.5609 20.5987 21.529 19.8279L22.6382 18.9444" stroke="#9CA3AF" stroke-width="1.40993" stroke-miterlimit="10" stroke-linecap="round" stroke-linejoin="round"/>
<path d="M26.8116 16.5381C28.1094 16.5381 29.1614 15.4861 29.1614 14.1883C29.1614 12.8905 28.1094 11.8384 26.8116 11.8384C25.5137 11.8384 24.4617 12.8905 24.4617 14.1883C24.4617 15.4861 25.5137 16.5381 26.8116 16.5381Z" stroke="#9CA3AF" stroke-width="1.40993" stroke-miterlimit="10" stroke-linecap="round" stroke-linejoin="round"/>
</svg>
