<svg width="32" height="32" viewBox="0 0 32 32" fill="none" xmlns="http://www.w3.org/2000/svg">
<path d="M17.5153 8.36353H9.3698C9.03889 8.36353 8.72071 8.37625 8.41526 8.41443C4.99162 8.70716 3.27344 10.7308 3.27344 14.4599V19.5508C3.27344 24.6417 5.3098 25.6472 9.3698 25.6472H9.87889C10.1589 25.6472 10.528 25.8381 10.6934 26.0544L12.2207 28.0908C12.8953 28.9944 13.9898 28.9944 14.6643 28.0908L16.1916 26.0544C16.3825 25.7999 16.688 25.6472 17.0062 25.6472H17.5153C21.2443 25.6472 23.268 23.9417 23.5607 20.5053C23.5989 20.1999 23.6116 19.8817 23.6116 19.5508V14.4599C23.6116 10.3999 21.5753 8.36353 17.5153 8.36353ZM9.00071 18.5453C8.28798 18.5453 7.72798 17.9726 7.72798 17.2726C7.72798 16.5726 8.30071 15.9999 9.00071 15.9999C9.70071 15.9999 10.2734 16.5726 10.2734 17.2726C10.2734 17.9726 9.70071 18.5453 9.00071 18.5453ZM13.4425 18.5453C12.7298 18.5453 12.1698 17.9726 12.1698 17.2726C12.1698 16.5726 12.7425 15.9999 13.4425 15.9999C14.1425 15.9999 14.7153 16.5726 14.7153 17.2726C14.7153 17.9726 14.1553 18.5453 13.4425 18.5453ZM17.8971 18.5453C17.1843 18.5453 16.6243 17.9726 16.6243 17.2726C16.6243 16.5726 17.1971 15.9999 17.8971 15.9999C18.5971 15.9999 19.1698 16.5726 19.1698 17.2726C19.1698 17.9726 18.5971 18.5453 17.8971 18.5453Z" fill="#1C2A3A"/>
<path d="M28.7021 9.36907V14.46C28.7021 17.0054 27.913 18.7363 26.3349 19.6909C25.953 19.92 25.5076 19.6145 25.5076 19.1691L25.5203 14.46C25.5203 9.36907 22.6058 6.45452 17.5149 6.45452L9.76395 6.46725C9.31849 6.46725 9.01304 6.0218 9.24213 5.63998C10.1967 4.0618 11.9276 3.27271 14.4603 3.27271H22.6058C26.6658 3.27271 28.7021 5.30907 28.7021 9.36907Z" fill="#1C2A3A"/>
</svg>
