<svg width="25" height="24" viewBox="0 0 25 24" fill="none" xmlns="http://www.w3.org/2000/svg">
<path d="M12.5 15.5C14.71 15.5 16.5 13.71 16.5 11.5V6C16.5 3.79 14.71 2 12.5 2C10.29 2 8.5 3.79 8.5 6V11.5C8.5 13.71 10.29 15.5 12.5 15.5Z" stroke="#9CA3AF" stroke-width="1.5" stroke-linecap="round" stroke-linejoin="round"/>
<path d="M4.8501 9.6499V11.3499C4.8501 15.5699 8.2801 18.9999 12.5001 18.9999C16.7201 18.9999 20.1501 15.5699 20.1501 11.3499V9.6499" stroke="#9CA3AF" stroke-width="1.5" stroke-linecap="round" stroke-linejoin="round"/>
<path d="M11.1099 6.43012C12.0099 6.10012 12.9899 6.10012 13.8899 6.43012" stroke="#9CA3AF" stroke-width="1.5" stroke-linecap="round" stroke-linejoin="round"/>
<path d="M11.7002 8.55007C12.2302 8.41007 12.7802 8.41007 13.3102 8.55007" stroke="#9CA3AF" stroke-width="1.5" stroke-linecap="round" stroke-linejoin="round"/>
<path d="M12.5 19V22" stroke="#9CA3AF" stroke-width="1.5" stroke-linecap="round" stroke-linejoin="round"/>
</svg>
