<svg width="23" height="24" viewBox="0 0 23 24" fill="none" xmlns="http://www.w3.org/2000/svg">
<path d="M11.3788 3.45557C8.26751 3.45557 5.73903 5.98404 5.73903 9.09529V11.8118C5.73903 12.3851 5.49464 13.2593 5.20326 13.7481L4.12231 15.5434C3.45494 16.6525 3.91552 17.8839 5.13746 18.2974C9.18866 19.651 13.5594 19.651 17.6106 18.2974C18.748 17.9215 19.2462 16.5773 18.6258 15.5434L17.5448 13.7481C17.2629 13.2593 17.0185 12.3851 17.0185 11.8118V9.09529C17.0185 5.99344 14.4806 3.45557 11.3788 3.45557Z" stroke="#9CA3AF" stroke-width="1.40993" stroke-miterlimit="10" stroke-linecap="round"/>
<path d="M13.1177 3.72829C12.8263 3.64369 12.5255 3.57789 12.2154 3.5403C11.313 3.4275 10.4483 3.4933 9.63989 3.72829C9.91248 3.03272 10.5892 2.54395 11.3788 2.54395C12.1684 2.54395 12.8451 3.03272 13.1177 3.72829Z" stroke="#9CA3AF" stroke-width="1.40993" stroke-miterlimit="10" stroke-linecap="round" stroke-linejoin="round"/>
<path d="M14.1988 18.636C14.1988 20.1869 12.9299 21.4558 11.3789 21.4558C10.6082 21.4558 9.89382 21.1363 9.38624 20.6287C8.87867 20.1211 8.55908 19.4067 8.55908 18.636" stroke="#9CA3AF" stroke-width="1.40993" stroke-miterlimit="10"/>
</svg>
