<svg width="49" height="48" viewBox="0 0 49 48" fill="none" xmlns="http://www.w3.org/2000/svg">
<rect x="0.31665" width="48" height="48" rx="24" fill="#F3F4F6"/>
<path d="M31.6566 26.49L30.6566 24.83C30.4466 24.46 30.2566 23.76 30.2566 23.35V20.82C30.2566 18.47 28.8766 16.44 26.8866 15.49C26.3666 14.57 25.4066 14 24.3066 14C23.2166 14 22.2366 14.59 21.7166 15.52C19.7666 16.49 18.4166 18.5 18.4166 20.82V23.35C18.4166 23.76 18.2266 24.46 18.0166 24.82L17.0066 26.49C16.6066 27.16 16.5166 27.9 16.7666 28.58C17.0066 29.25 17.5766 29.77 18.3166 30.02C20.2566 30.68 22.2966 31 24.3366 31C26.3766 31 28.4166 30.68 30.3566 30.03C31.0566 29.8 31.5966 29.27 31.8566 28.58C32.1166 27.89 32.0466 27.13 31.6566 26.49Z" fill="#292D32"/>
<path d="M27.1466 32.01C26.7266 33.17 25.6166 34 24.3166 34C23.5266 34 22.7466 33.68 22.1966 33.11C21.8766 32.81 21.6366 32.41 21.4966 32C21.6266 32.02 21.7566 32.03 21.8966 32.05C22.1266 32.08 22.3666 32.11 22.6066 32.13C23.1766 32.18 23.7566 32.21 24.3366 32.21C24.9066 32.21 25.4766 32.18 26.0366 32.13C26.2466 32.11 26.4566 32.1 26.6566 32.07C26.8166 32.05 26.9766 32.03 27.1466 32.01Z" fill="#292D32"/>
</svg>
