<svg width="25" height="24" viewBox="0 0 25 24" fill="none" xmlns="http://www.w3.org/2000/svg">
<path d="M19.6566 14.49L18.6566 12.83C18.4466 12.46 18.2566 11.76 18.2566 11.35V8.82C18.2566 6.47 16.8766 4.44 14.8866 3.49C14.3666 2.57 13.4066 2 12.3066 2C11.2166 2 10.2366 2.59 9.71659 3.52C7.76659 4.49 6.41659 6.5 6.41659 8.82V11.35C6.41659 11.76 6.22659 12.46 6.01659 12.82L5.00659 14.49C4.60659 15.16 4.51659 15.9 4.76659 16.58C5.00659 17.25 5.57659 17.77 6.31659 18.02C8.25659 18.68 10.2966 19 12.3366 19C14.3766 19 16.4166 18.68 18.3566 18.03C19.0566 17.8 19.5966 17.27 19.8566 16.58C20.1166 15.89 20.0466 15.13 19.6566 14.49Z" fill="#292D32"/>
<path d="M15.1466 20.01C14.7266 21.17 13.6166 22 12.3166 22C11.5266 22 10.7466 21.68 10.1966 21.11C9.87658 20.81 9.63658 20.41 9.49658 20C9.62658 20.02 9.75658 20.03 9.89658 20.05C10.1266 20.08 10.3666 20.11 10.6066 20.13C11.1766 20.18 11.7566 20.21 12.3366 20.21C12.9066 20.21 13.4766 20.18 14.0366 20.13C14.2466 20.11 14.4566 20.1 14.6566 20.07C14.8166 20.05 14.9766 20.03 15.1466 20.01Z" fill="#292D32"/>
</svg>
