<svg width="16" height="16" viewBox="0 0 16 16" fill="none" xmlns="http://www.w3.org/2000/svg">
<path d="M14.4465 1.56836C12.6615 -0.216642 10.9332 -0.259142 9.10568 1.56836L7.98651 2.68752C7.88734 2.78669 7.85904 2.92836 7.88737 3.05586C8.58154 5.49252 10.5224 7.43336 12.959 8.12752C12.9874 8.14169 13.0298 8.14169 13.0723 8.14169C13.1715 8.14169 13.2707 8.09919 13.3415 8.02836L14.4465 6.92336C15.3532 6.01669 15.7924 5.15252 15.7924 4.27419C15.7924 3.35336 15.3532 2.47502 14.4465 1.56836Z" fill="#0D0D0D"/>
<path d="M11.3153 8.94921C11.0461 8.82171 10.7911 8.69421 10.5503 8.53838C10.3519 8.42504 10.1536 8.29754 9.96947 8.15588C9.81364 8.05671 9.62944 7.91504 9.44527 7.75921C9.41694 7.74504 9.36029 7.70254 9.28946 7.61754C8.99196 7.36254 8.65194 7.02254 8.34027 6.66838C8.31194 6.65421 8.26944 6.58338 8.21278 6.49838C8.11361 6.38504 7.97196 6.20088 7.83029 6.00254C7.71696 5.86088 7.58946 5.66254 7.47613 5.46421C7.33446 5.22338 7.19279 4.96838 7.07946 4.71338C6.95196 4.43004 6.85278 4.17504 6.75361 3.92004L1.41279 9.26088C1.05863 9.61504 0.732796 10.2667 0.661962 10.7484L0.251117 13.695C0.15195 14.3184 0.336098 14.8992 0.718598 15.2959C1.04443 15.6217 1.4978 15.7917 1.99363 15.7917C2.10697 15.7917 2.2061 15.7775 2.31944 15.7634L5.26613 15.3525C5.7478 15.2817 6.39944 14.9559 6.75361 14.6017L12.0945 9.26088C11.8395 9.16171 11.5844 9.06254 11.3153 8.94921Z" fill="#0D0D0D"/>
</svg>
