<svg width="49" height="49" viewBox="0 0 49 49" fill="none" xmlns="http://www.w3.org/2000/svg">
<rect x="0.584961" y="0.5" width="48" height="48" rx="24" fill="#F3F4F6"/>
<path d="M21.585 14.5C18.965 14.5 16.835 16.63 16.835 19.25C16.835 21.82 18.845 23.9 21.465 23.99C21.545 23.98 21.625 23.98 21.685 23.99C21.705 23.99 21.715 23.99 21.735 23.99C21.745 23.99 21.745 23.99 21.755 23.99C24.315 23.9 26.325 21.82 26.335 19.25C26.335 16.63 24.205 14.5 21.585 14.5Z" fill="#292D32"/>
<path d="M26.6649 26.6499C23.8749 24.7899 19.3249 24.7899 16.5149 26.6499C15.2449 27.4999 14.5449 28.6499 14.5449 29.8799C14.5449 31.1099 15.2449 32.2499 16.5049 33.0899C17.9049 34.0299 19.7449 34.4999 21.5849 34.4999C23.4249 34.4999 25.2649 34.0299 26.6649 33.0899C27.9249 32.2399 28.6249 31.0999 28.6249 29.8599C28.6149 28.6299 27.9249 27.4899 26.6649 26.6499Z" fill="#292D32"/>
<path d="M32.5748 19.8401C32.7348 21.7801 31.3548 23.4801 29.4448 23.7101C29.4348 23.7101 29.4348 23.7101 29.4248 23.7101H29.3948C29.3348 23.7101 29.2748 23.7101 29.2248 23.7301C28.2548 23.7801 27.3648 23.4701 26.6948 22.9001C27.7248 21.9801 28.3148 20.6001 28.1948 19.1001C28.1248 18.2901 27.8448 17.5501 27.4248 16.9201C27.8048 16.7301 28.2448 16.6101 28.6948 16.5701C30.6548 16.4001 32.4048 17.8601 32.5748 19.8401Z" fill="#292D32"/>
<path d="M34.5752 29.0899C34.4952 30.0599 33.8752 30.8999 32.8352 31.4699C31.8352 32.0199 30.5752 32.2799 29.3252 32.2499C30.0452 31.5999 30.4652 30.7899 30.5452 29.9299C30.6452 28.6899 30.0552 27.4999 28.8752 26.5499C28.2052 26.0199 27.4252 25.5999 26.5752 25.2899C28.7852 24.6499 31.5652 25.0799 33.2752 26.4599C34.1952 27.1999 34.6652 28.1299 34.5752 29.0899Z" fill="#292D32"/>
</svg>
