<svg width="18" height="18" viewBox="0 0 18 18" fill="none" xmlns="http://www.w3.org/2000/svg">
<g clip-path="url(#clip0_343_13487)">
<path d="M7.64337 0.964355C6.66251 0.980879 5.77657 1.56588 5.37579 2.47045L10.1746 3.91994C10.3856 2.6617 9.6297 1.44178 8.41329 1.07158C8.19532 1.00549 7.96681 0.969277 7.73829 0.964355H7.64337ZM5.19298 3.07654C4.97853 4.3383 5.73439 5.56174 6.95431 5.93088C8.17775 6.30002 9.48204 5.69533 9.99532 4.52463L5.19298 3.07654ZM14.527 4.63361C13.6375 4.63713 12.6918 5.06603 11.9781 6.07502L7.59064 12.2942C6.4129 13.9606 6.92618 15.7043 8.08634 16.527C9.25001 17.3531 11.0606 17.2582 12.2383 15.5918L16.6223 9.37619C17.8 7.70627 17.2867 5.96603 16.1266 5.13986C15.6906 4.83049 15.1668 4.65119 14.6149 4.63361H14.527ZM14.4637 5.24182C14.5094 5.24182 14.5551 5.24182 14.5973 5.24533C15.0227 5.26291 15.4234 5.41408 15.7609 5.65666C16.6645 6.2965 17.118 7.57268 16.102 9.01057L13.8344 12.2274C12.5758 11.8899 10.9586 10.7403 10.2238 9.66096L12.4984 6.44064C13.0926 5.60041 13.7992 5.25588 14.4637 5.24182ZM3.20841 7.92072C2.87021 7.92424 2.53657 7.99455 2.2265 8.13166C1.06247 8.64143 0.456731 9.94221 0.811809 11.1656L5.40743 9.15822C4.94689 8.38127 4.11017 7.91018 3.20841 7.92072ZM5.65704 9.73479L1.06212 11.7457C1.71075 12.8496 3.07658 13.2926 4.24728 12.7828C5.41447 12.2696 6.01915 10.9617 5.65704 9.73479Z" fill="#9CA3AF"/>
</g>
<defs>
<clipPath id="clip0_343_13487">
<rect width="18" height="18" fill="white"/>
</clipPath>
</defs>
</svg>
