<svg width="25" height="25" viewBox="0 0 25 25" fill="none" xmlns="http://www.w3.org/2000/svg">
<path d="M9.74502 11.37C9.64502 11.36 9.52502 11.36 9.41502 11.37C7.03502 11.29 5.14502 9.34 5.14502 6.94C5.14502 4.49 7.12502 2.5 9.58502 2.5C12.035 2.5 14.025 4.49 14.025 6.94C14.015 9.34 12.125 11.29 9.74502 11.37Z" stroke="#9CA3AF" stroke-width="1.5" stroke-linecap="round" stroke-linejoin="round"/>
<path d="M16.9947 4.5C18.9347 4.5 20.4947 6.07 20.4947 8C20.4947 9.89 18.9947 11.43 17.1247 11.5C17.0447 11.49 16.9547 11.49 16.8647 11.5" stroke="#9CA3AF" stroke-width="1.5" stroke-linecap="round" stroke-linejoin="round"/>
<path d="M4.74518 15.06C2.32518 16.68 2.32518 19.32 4.74518 20.93C7.49518 22.77 12.0052 22.77 14.7552 20.93C17.1752 19.31 17.1752 16.67 14.7552 15.06C12.0152 13.23 7.50518 13.23 4.74518 15.06Z" stroke="#9CA3AF" stroke-width="1.5" stroke-linecap="round" stroke-linejoin="round"/>
<path d="M18.9248 20.5C19.6448 20.35 20.3248 20.06 20.8848 19.63C22.4448 18.46 22.4448 16.53 20.8848 15.36C20.3348 14.94 19.6648 14.66 18.9548 14.5" stroke="#9CA3AF" stroke-width="1.5" stroke-linecap="round" stroke-linejoin="round"/>
</svg>
