<svg width="32" height="32" viewBox="0 0 32 32" fill="none" xmlns="http://www.w3.org/2000/svg">
<path d="M12.1822 3.27271C8.84763 3.27271 6.13672 5.98361 6.13672 9.31816C6.13672 12.5891 8.6949 15.2363 12.0294 15.3509C12.1313 15.3382 12.2331 15.3382 12.3094 15.3509C12.3349 15.3509 12.3476 15.3509 12.3731 15.3509C12.3858 15.3509 12.3858 15.3509 12.3985 15.3509C15.6567 15.2363 18.2149 12.5891 18.2276 9.31816C18.2276 5.98361 15.5167 3.27271 12.1822 3.27271Z" fill="#1C2A3A"/>
<path d="M18.6471 18.7361C15.0962 16.3689 9.30532 16.3689 5.72895 18.7361C4.11259 19.818 3.22168 21.2816 3.22168 22.8471C3.22168 24.4125 4.11259 25.8634 5.71623 26.9325C7.49804 28.1289 9.83986 28.7271 12.1817 28.7271C14.5235 28.7271 16.8653 28.1289 18.6471 26.9325C20.2508 25.8507 21.1417 24.3998 21.1417 22.8216C21.129 21.2561 20.2508 19.8052 18.6471 18.7361Z" fill="#1C2A3A"/>
<path d="M26.1692 10.0693C26.3728 12.5384 24.6165 14.7021 22.1855 14.9948C22.1728 14.9948 22.1728 14.9948 22.1601 14.9948H22.1219C22.0455 14.9948 21.9692 14.9948 21.9055 15.0202C20.671 15.0839 19.5383 14.6893 18.6855 13.9639C19.9965 12.793 20.7474 11.0366 20.5946 9.12751C20.5055 8.0966 20.1492 7.15478 19.6146 6.35297C20.0983 6.11115 20.6583 5.95842 21.231 5.90751C23.7255 5.69115 25.9528 7.54933 26.1692 10.0693Z" fill="#1C2A3A"/>
<path d="M28.715 21.8417C28.6132 23.0762 27.8241 24.1453 26.5005 24.8708C25.2277 25.5708 23.6241 25.9017 22.0332 25.8635C22.9496 25.0362 23.4841 24.0053 23.5859 22.9108C23.7132 21.3326 22.9623 19.8181 21.4605 18.609C20.6077 17.9344 19.615 17.3999 18.5332 17.0053C21.3459 16.1908 24.8841 16.7381 27.0605 18.4944C28.2314 19.4362 28.8296 20.6199 28.715 21.8417Z" fill="#1C2A3A"/>
</svg>
