<svg width="51" height="50" viewBox="0 0 51 50" fill="none" xmlns="http://www.w3.org/2000/svg">
<rect x="0.479004" y="0.979492" width="49.822" height="48.911" rx="24.4555" fill="#F3F4F6"/>
<path d="M34.2199 21.4451L27.6699 16.2051C26.3899 15.1851 24.3899 15.1751 23.1199 16.1951L16.5699 21.4451C15.6299 22.1951 15.0599 23.6951 15.2599 24.8751L16.5199 32.4151C16.8099 34.1051 18.3799 35.4351 20.0899 35.4351H30.6899C32.3799 35.4351 33.9799 34.0751 34.2699 32.4051L35.5299 24.8651C35.7099 23.6951 35.1399 22.1951 34.2199 21.4451ZM26.1399 31.4351C26.1399 31.8451 25.7999 32.1851 25.3899 32.1851C24.9799 32.1851 24.6399 31.8451 24.6399 31.4351V28.4351C24.6399 28.0251 24.9799 27.6851 25.3899 27.6851C25.7999 27.6851 26.1399 28.0251 26.1399 28.4351V31.4351Z" fill="#292D32"/>
</svg>
