<svg width="50" height="47" viewBox="0 0 50 47" fill="none" xmlns="http://www.w3.org/2000/svg">
<rect x="0.111267" y="0.53125" width="49.822" height="45.911" rx="22.9555" fill="#F3F4F6"/>
<g clip-path="url(#clip0_291_5846)">
<path fill-rule="evenodd" clip-rule="evenodd" d="M21.5499 16.619C21.5499 15.698 21.9157 14.8148 22.5669 14.1636C23.2182 13.5123 24.1014 13.1465 25.0224 13.1465C25.9433 13.1465 26.8266 13.5123 27.4778 14.1636C28.129 14.8148 28.4949 15.698 28.4949 16.619C28.4949 17.5399 28.129 18.4232 27.4778 19.0744C26.8266 19.7256 25.9433 20.0915 25.0224 20.0915C24.1014 20.0915 23.2182 19.7256 22.5669 19.0744C21.9157 18.4232 21.5499 17.5399 21.5499 16.619ZM18.1914 22.307C18.8982 21.6359 19.8357 21.2618 20.8104 21.2618C21.785 21.2618 22.7225 21.6359 23.4294 22.307L23.4444 22.322L25.0224 23.9L26.6019 22.322L26.6169 22.307C27.3236 21.6368 28.2604 21.2633 29.2344 21.2633C30.2083 21.2633 31.1452 21.6368 31.8519 22.307C32.2029 22.6399 32.4825 23.0408 32.6738 23.4852C32.865 23.9296 32.9639 24.4082 32.9643 24.892C32.9647 25.3758 32.8667 25.8546 32.6762 26.2994C32.4858 26.7441 32.2068 27.1455 31.8564 27.479L25.5444 33.614C25.4044 33.7501 25.2168 33.8262 25.0216 33.8262C24.8264 33.8262 24.6389 33.7501 24.4989 33.614L18.1884 27.479C17.8381 27.1456 17.5592 26.7444 17.3687 26.2999C17.1783 25.8553 17.0802 25.3767 17.0805 24.8931C17.0808 24.4095 17.1794 23.931 17.3704 23.4866C17.5613 23.0423 17.8407 22.64 18.1914 22.307Z" fill="#292D32"/>
</g>
<defs>
<clipPath id="clip0_291_5846">
<rect width="21" height="21" fill="white" transform="translate(14.5223 12.9863)"/>
</clipPath>
</defs>
</svg>
