<svg width="25" height="24" viewBox="0 0 25 24" fill="none" xmlns="http://www.w3.org/2000/svg">
<path d="M9.93228 10.87C9.83228 10.86 9.71228 10.86 9.60228 10.87C7.22228 10.79 5.33228 8.84 5.33228 6.44C5.33228 3.99 7.31228 2 9.77228 2C12.2223 2 14.2123 3.99 14.2123 6.44C14.2023 8.84 12.3123 10.79 9.93228 10.87Z" stroke="#9CA3AF" stroke-width="1.5" stroke-linecap="round" stroke-linejoin="round"/>
<path d="M17.1822 4C19.1222 4 20.6822 5.57 20.6822 7.5C20.6822 9.39 19.1822 10.93 17.3122 11C17.2322 10.99 17.1422 10.99 17.0522 11" stroke="#9CA3AF" stroke-width="1.5" stroke-linecap="round" stroke-linejoin="round"/>
<path d="M4.93219 14.56C2.51219 16.18 2.51219 18.82 4.93219 20.43C7.68219 22.27 12.1922 22.27 14.9422 20.43C17.3622 18.81 17.3622 16.17 14.9422 14.56C12.2022 12.73 7.69219 12.73 4.93219 14.56Z" stroke="#9CA3AF" stroke-width="1.5" stroke-linecap="round" stroke-linejoin="round"/>
<path d="M19.1123 20C19.8323 19.85 20.5123 19.56 21.0723 19.13C22.6323 17.96 22.6323 16.03 21.0723 14.86C20.5223 14.44 19.8523 14.16 19.1423 14" stroke="#9CA3AF" stroke-width="1.5" stroke-linecap="round" stroke-linejoin="round"/>
</svg>
