<svg width="16" height="16" viewBox="0 0 16 16" fill="none" xmlns="http://www.w3.org/2000/svg">
<path d="M6.2202 3.36216C5.73744 1.27423 2.59348 1.26819 2.11072 3.36216C1.8271 4.58716 2.60554 5.62509 3.28141 6.27078C3.77623 6.73543 4.55468 6.73543 5.04951 6.27078C5.72537 5.62509 6.49779 4.58716 6.2202 3.36216ZM4.18658 4.32767C3.85468 4.32767 3.58313 4.05612 3.58313 3.72423C3.58313 3.39233 3.84865 3.12078 4.18054 3.12078H4.18658C4.52451 3.12078 4.79003 3.39233 4.79003 3.72423C4.79003 4.05612 4.52451 4.32767 4.18658 4.32767Z" fill="#9CA3AF"/>
<path d="M14.084 10.6034C13.6012 8.51544 10.4452 8.5094 9.9564 10.6034C9.67278 11.8284 10.4512 12.8663 11.1331 13.512C11.628 13.9766 12.4124 13.9766 12.9073 13.512C13.5892 12.8663 14.3676 11.8284 14.084 10.6034ZM12.0443 11.5689C11.7124 11.5689 11.4409 11.2973 11.4409 10.9654C11.4409 10.6335 11.7064 10.362 12.0383 10.362H12.0443C12.3762 10.362 12.6478 10.6335 12.6478 10.9654C12.6478 11.2973 12.3762 11.5689 12.0443 11.5689Z" fill="#9CA3AF"/>
<path d="M8.10356 12.5043H6.48631C5.78631 12.5043 5.17683 12.0819 4.93545 11.4302C4.68804 10.7785 4.86907 10.0604 5.39407 9.59571L10.2156 5.3776C10.5053 5.12415 10.5113 4.78019 10.4268 4.54484C10.3363 4.3095 10.107 4.05605 9.7208 4.05605H8.10356C7.85614 4.05605 7.65097 3.85088 7.65097 3.60347C7.65097 3.35605 7.85614 3.15088 8.10356 3.15088H9.7208C10.4208 3.15088 11.0303 3.57329 11.2717 4.22502C11.5191 4.87674 11.338 5.59484 10.813 6.0595L5.99149 10.2776C5.70183 10.5311 5.6958 10.875 5.78028 11.1104C5.8708 11.3457 6.10011 11.5992 6.48631 11.5992H8.10356C8.35097 11.5992 8.55614 11.8043 8.55614 12.0517C8.55614 12.2992 8.35097 12.5043 8.10356 12.5043Z" fill="#9CA3AF"/>
</svg>
