<svg width="41" height="41" viewBox="0 0 41 41" fill="none" xmlns="http://www.w3.org/2000/svg">
<path d="M40.513 20.7681C40.513 31.9292 31.4651 40.9771 20.304 40.9771C9.14285 40.9771 0.0949707 31.9292 0.0949707 20.7681C0.0949707 9.60696 9.14285 0.559082 20.304 0.559082C31.4651 0.559082 40.513 9.60696 40.513 20.7681Z" fill="#F1F4F5"/>
<path d="M19.4933 28.7565C23.8656 28.7565 27.41 25.2121 27.41 20.8399C27.41 16.4676 23.8656 12.9232 19.4933 12.9232C15.1211 12.9232 11.5767 16.4676 11.5767 20.8399C11.5767 25.2121 15.1211 28.7565 19.4933 28.7565Z" fill="#F1F4F5"/>
<path d="M29.9099 11.2565H9.90991V31.2565H29.9099V11.2565Z" fill="#F1F4F5"/>
<path d="M19.4932 28.7562C23.8655 28.7562 27.4099 25.2118 27.4099 20.8395C27.4099 16.4673 23.8655 12.9229 19.4932 12.9229C15.121 12.9229 11.5765 16.4673 11.5765 20.8395C11.5765 25.2118 15.121 28.7562 19.4932 28.7562Z" stroke="#9CA3AF" stroke-width="1.25" stroke-linecap="round" stroke-linejoin="round"/>
<path d="M28.2432 29.5895L26.5765 27.9229" stroke="#9CA3AF" stroke-width="1.25" stroke-linecap="round" stroke-linejoin="round"/>
</svg>
