<svg width="25" height="24" viewBox="0 0 25 24" fill="none" xmlns="http://www.w3.org/2000/svg">
<path d="M16.6401 2.96004L7.61012 5.96004C1.54012 7.99004 1.54012 11.3 7.61012 13.32L10.2901 14.21L11.1801 16.89C13.2001 22.96 16.5201 22.96 18.5401 16.89L21.5501 7.87004C22.8901 3.82004 20.6901 1.61004 16.6401 2.96004ZM16.9601 8.34004L13.1601 12.16C13.0101 12.31 12.8201 12.38 12.6301 12.38C12.4401 12.38 12.2501 12.31 12.1001 12.16C11.8101 11.87 11.8101 11.39 12.1001 11.1L15.9001 7.28004C16.1901 6.99004 16.6701 6.99004 16.9601 7.28004C17.2501 7.57004 17.2501 8.05004 16.9601 8.34004Z" fill="#292D32"/>
</svg>
