<svg width="14" height="13" viewBox="0 0 14 13" fill="none" xmlns="http://www.w3.org/2000/svg">
<path d="M13.6596 5.77291L8.90537 0.837197C8.82919 0.760157 8.7319 0.707396 8.62578 0.685568C8.51966 0.663739 8.40946 0.673819 8.30906 0.714537C8.20865 0.755256 8.12255 0.824789 8.06161 0.91437C8.00068 1.00395 7.96763 1.10957 7.96663 1.21791V3.5898H7.78409C5.8937 3.59201 4.08136 4.34395 2.74465 5.68066C1.40794 7.01737 0.656017 8.8297 0.653809 10.7201V11.8174C0.655511 11.9397 0.698616 12.0579 0.776089 12.1526C0.853562 12.2473 0.960829 12.313 1.08041 12.3389C1.11998 12.3488 1.16062 12.3537 1.2014 12.3535C1.30553 12.3523 1.40733 12.3225 1.49564 12.2673C1.58395 12.2121 1.65538 12.1337 1.70208 12.0406C2.19953 11.0355 2.96878 10.19 3.92252 9.59997C4.87626 9.00999 5.97629 8.69918 7.09776 8.70283H7.96663V11.0904C7.96763 11.1987 8.00068 11.3043 8.06161 11.3939C8.12255 11.4835 8.20865 11.553 8.30906 11.5937C8.40946 11.6345 8.51966 11.6445 8.62578 11.6227C8.7319 11.6009 8.82919 11.5481 8.90537 11.4711L13.6586 6.53538C13.7575 6.43322 13.813 6.2966 13.8132 6.15435C13.8134 6.0121 13.7583 5.87534 13.6596 5.77291Z" fill="#1C2A3A"/>
</svg>
