<svg width="24" height="23" viewBox="0 0 24 23" fill="none" xmlns="http://www.w3.org/2000/svg">
<path d="M21.3401 9.88827V14.588C21.3401 17.8779 19.4602 19.2878 16.6403 19.2878H7.24078C4.42092 19.2878 2.54102 17.8779 2.54102 14.588V8.00836C2.54102 4.71852 4.42092 3.30859 7.24078 3.30859H13.8205" stroke="#9CA3AF" stroke-width="1.40993" stroke-miterlimit="10" stroke-linecap="round" stroke-linejoin="round"/>
<path d="M7.24121 8.47803L10.1833 10.8279C11.1514 11.5987 12.7399 11.5987 13.7081 10.8279L14.8172 9.94435" stroke="#9CA3AF" stroke-width="1.40993" stroke-miterlimit="10" stroke-linecap="round" stroke-linejoin="round"/>
<path d="M18.9905 7.53815C20.2883 7.53815 21.3404 6.48607 21.3404 5.18826C21.3404 3.89046 20.2883 2.83838 18.9905 2.83838C17.6927 2.83838 16.6406 3.89046 16.6406 5.18826C16.6406 6.48607 17.6927 7.53815 18.9905 7.53815Z" stroke="#9CA3AF" stroke-width="1.40993" stroke-miterlimit="10" stroke-linecap="round" stroke-linejoin="round"/>
</svg>
