<svg width="21" height="21" viewBox="0 0 21 21" fill="none" xmlns="http://www.w3.org/2000/svg">
<path fill-rule="evenodd" clip-rule="evenodd" d="M10.6136 0.818115C9.9994 0.849539 9.39008 1.33058 8.91935 2.25982L7.1322 5.83412C6.89138 6.32843 6.24497 6.81008 5.69995 6.8988L2.46787 7.43114C0.401877 7.78604 -0.0797662 9.28166 1.40319 10.7646L3.92548 13.2869C4.34374 13.7052 4.58457 14.529 4.47049 15.1374L3.74803 18.2554C3.17766 20.7143 4.49584 21.665 6.66324 20.3848L9.69252 18.585C9.94502 18.4323 10.2764 18.3504 10.6136 18.3392V0.818115Z" fill="#1C2A3A"/>
<path fill-rule="evenodd" clip-rule="evenodd" d="M10.6133 18.3408C11.0039 18.3278 11.4023 18.4098 11.6948 18.5866L14.7241 20.3864C16.8915 21.6793 18.2096 20.716 17.6393 18.2571L16.9168 15.1391C16.7774 14.5434 17.0182 13.7195 17.4365 13.3012L19.9588 10.7789C21.4417 9.28331 20.9601 7.78768 18.8941 7.44546L15.662 6.91312C15.117 6.81172 14.4706 6.34275 14.2297 5.84844L12.4426 2.27414C11.9374 1.27025 11.2725 0.786046 10.6133 0.819761V18.3408Z" fill="#1C2A3A"/>
</svg>
