<svg width="23" height="22" viewBox="0 0 23 22" fill="none" xmlns="http://www.w3.org/2000/svg">
<path d="M18.2701 14.6771C18.5653 14.3967 18.8005 14.0591 18.9612 13.685C19.1218 13.3108 19.2047 12.9078 19.2047 12.5006C19.2047 12.0934 19.1218 11.6905 18.9612 11.3163C18.8005 10.9422 18.5653 10.6046 18.2701 10.3242C17.6656 9.75055 16.8641 9.43074 16.0308 9.43074C15.1975 9.43074 14.3959 9.75055 13.7915 10.3242L11.5444 12.5714L9.29722 10.3242C8.69279 9.75055 7.89125 9.43074 7.05793 9.43074C6.22461 9.43074 5.42307 9.75055 4.81864 10.3242C4.52337 10.6046 4.28824 10.9422 4.12757 11.3163C3.96689 11.6905 3.88403 12.0934 3.88403 12.5006C3.88403 12.9078 3.96689 13.3108 4.12757 13.685C4.28824 14.0591 4.52337 14.3967 4.81864 14.6771L11.5444 21.2142L18.2701 14.6771ZM11.5444 7.07136C12.3779 7.07136 13.1773 6.74024 13.7667 6.15084C14.3561 5.56144 14.6872 4.76204 14.6872 3.9285C14.6872 3.09496 14.3561 2.29557 13.7667 1.70617C13.1773 1.11677 12.3779 0.785645 11.5444 0.785645C10.7108 0.785645 9.91142 1.11677 9.32202 1.70617C8.73262 2.29557 8.4015 3.09496 8.4015 3.9285C8.4015 4.76204 8.73262 5.56144 9.32202 6.15084C9.91142 6.74024 10.7108 7.07136 11.5444 7.07136Z" stroke="#9CA3AF" stroke-width="1.57143" stroke-linecap="round" stroke-linejoin="round"/>
</svg>
