<svg width="20" height="21" viewBox="0 0 20 21" fill="none" xmlns="http://www.w3.org/2000/svg">
<g opacity="0.5">
<path d="M2.5 5.5H4.16667H17.5" stroke="black" stroke-width="1.5" stroke-linecap="round" stroke-linejoin="round"/>
<path d="M6.66699 5.50008V3.83341C6.66699 3.39139 6.84259 2.96746 7.15515 2.6549C7.46771 2.34234 7.89163 2.16675 8.33366 2.16675H11.667C12.109 2.16675 12.5329 2.34234 12.8455 2.6549C13.1581 2.96746 13.3337 3.39139 13.3337 3.83341V5.50008M15.8337 5.50008V17.1667C15.8337 17.6088 15.6581 18.0327 15.3455 18.3453C15.0329 18.6578 14.609 18.8334 14.167 18.8334H5.83366C5.39163 18.8334 4.96771 18.6578 4.65515 18.3453C4.34259 18.0327 4.16699 17.6088 4.16699 17.1667V5.50008H15.8337Z" stroke="black" stroke-width="1.5" stroke-linecap="round" stroke-linejoin="round"/>
<path d="M8.33301 9.66675V14.6667" stroke="black" stroke-width="1.5" stroke-linecap="round" stroke-linejoin="round"/>
<path d="M11.667 9.66675V14.6667" stroke="black" stroke-width="1.5" stroke-linecap="round" stroke-linejoin="round"/>
</g>
</svg>
