<svg width="9" height="9" viewBox="0 0 9 9" fill="none" xmlns="http://www.w3.org/2000/svg">
<path d="M4.14933 0.525879C3.33311 0.525879 2.53522 0.767915 1.85656 1.22138C1.1779 1.67485 0.648954 2.31937 0.336602 3.07346C0.0242491 3.82755 -0.0574766 4.65732 0.101759 5.45785C0.260995 6.25839 0.654041 6.99372 1.23119 7.57088C1.80835 8.14803 2.54368 8.54107 3.34422 8.70031C4.14475 8.85955 4.97452 8.77782 5.72861 8.46547C6.4827 8.15312 7.12722 7.62417 7.58069 6.94551C8.03415 6.26685 8.27619 5.46896 8.27619 4.65274C8.27489 3.55863 7.83968 2.5097 7.06602 1.73605C6.29237 0.962394 5.24344 0.527182 4.14933 0.525879ZM7.41092 6.01468C7.20845 6.49658 6.90207 6.92784 6.51366 7.27764C6.12525 7.62745 5.6644 7.88719 5.16401 8.0383C5.18207 8.00437 5.19958 7.97016 5.21655 7.93568C5.29273 7.76974 5.40691 7.62406 5.54985 7.51043C5.66724 7.41521 5.89875 7.26415 5.86099 7.0819C5.8339 6.94727 5.68038 6.89227 5.56463 6.85943C5.37803 6.81263 5.18712 6.78513 4.9949 6.77734C4.82964 6.77638 4.66481 6.76072 4.50233 6.73054C4.26262 6.66979 4.20843 6.46209 4.19284 6.2429C4.19961 6.04586 4.16319 5.84972 4.08611 5.66825C4.01217 5.5683 3.9152 5.48768 3.80344 5.43322C3.69167 5.37877 3.56842 5.3521 3.44414 5.35547C3.24547 5.33741 3.0468 5.34726 2.84978 5.3136C2.66518 5.26373 2.47589 5.23319 2.28497 5.22248C2.03212 5.23233 1.91883 5.4039 1.81047 5.60175C1.6544 5.966 1.4566 6.31091 1.22103 6.62957C0.870778 6.11312 0.664484 5.51266 0.623391 4.88999C0.65174 4.88204 0.679238 4.87132 0.705485 4.85798C0.815491 4.8038 0.892659 4.70446 1.0117 4.66588C1.13688 4.64411 1.26509 4.64661 1.38933 4.67327C1.50522 4.68928 1.62258 4.69176 1.73905 4.68066C1.84242 4.66771 1.93806 4.61917 2.00952 4.54336C2.08099 4.46755 2.12381 4.36922 2.13064 4.26526C2.14267 4.13153 2.14569 3.99714 2.13967 3.863C2.14623 3.65366 2.28333 3.57813 2.47297 3.56089C2.8309 3.52723 3.66497 3.62246 3.68221 3.06833C3.6896 2.83272 3.40884 2.71122 3.22659 2.64883C2.86048 2.57528 2.49085 2.52048 2.11914 2.48464C1.92856 2.43155 1.75746 2.32433 1.62658 2.17597C2.02894 1.76575 2.52535 1.45995 3.07271 1.28512C3.62008 1.1103 4.20184 1.07173 4.7675 1.17278C4.66403 1.18996 4.56255 1.21746 4.46457 1.25487C4.35608 1.30982 4.26071 1.38749 4.18495 1.48261C4.10918 1.57772 4.0548 1.68805 4.02551 1.80607C3.99622 1.9241 3.9927 2.04704 4.0152 2.16655C4.0377 2.28605 4.08569 2.39931 4.15589 2.4986C4.30811 2.77062 4.51527 3.00798 4.76421 3.19558C4.99697 3.36267 5.24424 3.50856 5.50306 3.63149C5.84293 3.81867 5.80188 4.30631 5.88808 4.63468C5.91746 4.77127 5.98055 4.89833 6.0716 5.00429C6.16265 5.11025 6.27877 5.19175 6.40937 5.24136C6.57356 5.29964 6.76977 5.25449 6.91507 5.36942C7.03986 5.46876 7.06941 5.67071 7.14083 5.80698C7.16315 5.8626 7.19999 5.91121 7.24749 5.94774C7.295 5.98427 7.35144 6.00739 7.41092 6.01468Z" fill="#99A1BE"/>
</svg>
